<svg width="512" height="512" xmlns="http://www.w3.org/2000/svg">
  <defs>
    <linearGradient x1="42%" y1="-10%" x2="61%" y2="114%" id="f">
      <stop stop-color="#AAF2FF" offset="0%"/>
      <stop stop-color="#0DF" offset="29%"/>
      <stop stop-color="#0090ED" offset="61%"/>
      <stop stop-color="#0250BB" offset="89%"/>
    </linearGradient>
    <linearGradient x1="38%" y1="0%" x2="63%" y2="124%" id="g">
      <stop stop-color="#AAF2FF" offset="0%"/>
      <stop stop-color="#0DF" offset="29%"/>
      <stop stop-color="#0090ED" offset="74%"/>
      <stop stop-color="#0250BB" offset="100%"/>
    </linearGradient>
    <linearGradient x1="86%" y1="15%" x2="20%" y2="84%" id="k">
      <stop stop-color="#80EBFF" stop-opacity=".5" offset="24%"/>
      <stop stop-color="#0DF" stop-opacity="0" offset="70%"/>
    </linearGradient>
    <linearGradient x1="61%" y1="-10%" x2="20%" y2="149%" id="l">
      <stop stop-color="#BFF3FF" stop-opacity=".9" offset="0%"/>
      <stop stop-color="#80EBFF" stop-opacity=".5" offset="100%"/>
    </linearGradient>
    <linearGradient x1="51%" y1="-2%" x2="48%" y2="139%" id="m">
      <stop stop-color="#BFF3FF" offset="0%"/>
      <stop stop-color="#0DF" stop-opacity="0" offset="100%"/>
    </linearGradient>
    <linearGradient x1="52%" y1="-4%" x2="47%" y2="143%" id="n">
      <stop stop-color="#BFF3FF" offset="0%"/>
      <stop stop-color="#AAF2FF" stop-opacity=".5" offset="100%"/>
    </linearGradient>
    <linearGradient x1="53%" y1="-2%" x2="47%" y2="142%" id="o">
      <stop stop-color="#BFF3FF" offset="0%"/>
      <stop stop-color="#0DF" stop-opacity="0" offset="100%"/>
    </linearGradient>
    <linearGradient x1="49%" y1="-2%" x2="57%" y2="123%" id="p">
      <stop stop-color="#BFF3FF" stop-opacity=".8" offset="0%"/>
      <stop stop-color="#80EBFF" stop-opacity=".2" offset="100%"/>
    </linearGradient>
    <linearGradient x1="117%" y1="-23%" x2="24%" y2="128%" id="q">
      <stop stop-color="#BFF3FF" stop-opacity=".8" offset="0%"/>
      <stop stop-color="#80EBFF" stop-opacity=".2" offset="100%"/>
    </linearGradient>
    <linearGradient x1="52%" y1="-1%" x2="47%" y2="137%" id="r">
      <stop stop-color="#0DF" stop-opacity=".4" offset="0%"/>
      <stop stop-color="#0DF" stop-opacity="0" offset="100%"/>
    </linearGradient>
    <linearGradient x1="50%" y1="-12%" x2="50%" y2="99%" id="s">
      <stop stop-color="#BFF3FF" offset="0%"/>
      <stop stop-color="#0DF" stop-opacity="0" offset="100%"/>
    </linearGradient>
    <linearGradient x1="53%" y1="-3%" x2="47%" y2="142%" id="t">
      <stop stop-color="#BFF3FF" stop-opacity=".8" offset="0%"/>
      <stop stop-color="#0DF" stop-opacity="0" offset="100%"/>
    </linearGradient>
    <radialGradient cx="55%" cy="25%" r="60%" id="a">
      <stop stop-color="#0DF" stop-opacity=".4" offset="10%"/>
      <stop stop-color="#7542E5" stop-opacity=".25" offset="90%"/>
    </radialGradient>
    <radialGradient cx="49.238%" cy="52.7%" fx="49%" fy="52.7%" r="51%" id="b">
      <stop stop-color="#7542E5" stop-opacity="0" offset="91%"/>
      <stop stop-color="#0DF" stop-opacity=".4" offset="100%"/>
    </radialGradient>
    <radialGradient cx="86%" cy="-13%" fx="86%" fy="-13%" r="128%" gradientTransform="matrix(.81263 0 0 1 .16 0)" id="c">
      <stop stop-color="#80EBFF" offset="0%"/>
      <stop stop-color="#0DF" offset="26%"/>
      <stop stop-color="#0090ED" offset="53%"/>
      <stop stop-color="#0060DF" offset="86%"/>
    </radialGradient>
    <radialGradient cx="47.729%" cy="40%" fx="48%" fy="40%" r="128%" gradientTransform="matrix(.81263 0 0 1 .09 0)" id="d">
      <stop stop-color="#321C64" stop-opacity=".8" offset="30%"/>
      <stop stop-color="#212F83" stop-opacity=".5" offset="37%"/>
      <stop stop-color="#0A47AC" stop-opacity=".14" offset="48%"/>
      <stop stop-color="#0250BB" stop-opacity="0" offset="53%"/>
    </radialGradient>
    <radialGradient cx="90%" cy="-50%" r="210%" gradientTransform="matrix(.83857 0 0 1 .128 0)" id="e">
      <stop stop-color="#80EBFF" offset="0%"/>
      <stop stop-color="#00B3F4" offset="47%"/>
      <stop stop-color="#0060DF" offset="84%"/>
      <stop stop-color="#592ACB" offset="100%"/>
    </radialGradient>
    <radialGradient cx="208%" cy="-104%" fx="208%" fy="-104%" r="300%" gradientTransform="matrix(1 0 0 .99746 0 -.003)" id="h">
      <stop stop-color="#0DF" offset="0%"/>
      <stop stop-color="#0090ED" offset="82%"/>
    </radialGradient>
    <radialGradient cx="155%" cy="-45%" fx="155%" fy="-45%" r="313%" gradientTransform="matrix(.8937 0 0 1 .165 0)" id="i">
      <stop stop-color="#80EBFF" offset="29%"/>
      <stop stop-color="#00B3F4" offset="100%"/>
    </radialGradient>
    <radialGradient cx="15%" cy="-43%" fx="15%" fy="-43%" r="230%" gradientTransform="matrix(.9814 0 0 1 .003 0)" id="j">
      <stop stop-color="#AAF2FF" offset="18%"/>
      <stop stop-color="#0DF" offset="43%"/>
      <stop stop-color="#0060DF" offset="69%"/>
    </radialGradient>
  </defs>
  <path fill="#09204D" d="M146.622 289.139l15.141 41.983 22.752 30.701 53.417 10.19 25.555 2.174 43.626-10.901 18.794-18.017z"/>
  <path fill="#09204D" d="M372.686 227.21l-5.348-17.747-15.292-28.86-17.493-18.44-18.57-13.259-16.124-6.33-19.347-6.883-31.855-2.028-20.087 3.626-16.39 5.039-29.082 17.023-18.176 20.279-16.76 27.223-6.593 23.168-1.232 35.151 6.285 23.967 13.863 27.285 9.778 13.178L183.783 342l16.886 11.424 20.822 9.057 34.846 4.091 18.195 0.507 26.929-7.586 24.07-13.212 15.486-13.213 12.008-14.328 16.977-33.236 3.748-22.736z"/>
  <path fill="#0E56D7" d="M249.24 149.636l-14.266 14.156 23.271 9.434 17.311-21.469z"/>
  <path fill="#1053D1" d="M258.245 173.226l45.053-1.367-27.742-20.103z"/>
  <path fill="#0B4FBF" d="M299.951 151.605l-24.395 0.152 27.742 20.102 25.654-1.675z"/>
  <path fill="#0B48B0" d="M328.952 170.184l-14.584-20.113 20.185 12.092z"/>
  <path fill="#0C45A7" d="M348.265 182.5l-19.313-12.316 5.601-8.021z"/>
  <path fill="#0F46AF" d="M328.952 170.184l-3.231 13.778 17.664 7.061z"/>
  <path fill="#0C47AD" d="M328.952 170.184l19.313 12.316-4.88 8.523z"/>
  <path fill="#0E4FC3" d="M303.298 171.859l25.654-1.675-3.231 13.778z"/>
  <path fill="#174DCA" d="M303.298 171.859l-20.269 18.35 26.087 12.776z"/>
  <path fill="#1650D4" d="M258.245 173.226l45.053-1.367-20.269 18.35z"/>
  <path fill="#1246B2" d="M325.721 183.962l12.268 23.795 5.396-16.734z"/>
  <path fill="#133EA1" d="M337.989 207.757l5.396-16.734 12.853 30.574z"/>
  <path fill="#103D98" d="M343.385 191.023l19.589 14.348-6.736 16.226z"/>
  <path fill="#0B3785" d="M348.265 182.5l3.781-1.897 10.928 24.768z"/>
  <path fill="#0B3685" d="M362.974 205.371l4.364 4.092-15.292-28.86z"/>
  <path d="M362.974 205.371L348.265 182.5l-4.88 8.523 19.589 14.348zm-28.421-43.208l13.712 20.337 3.781-1.9-17.493-18.437z" fill="#0C3B91"/>
  <path fill="#0B3279" d="M371.703 241.075l-4.365-31.612 5.348 17.747-1.054 13.865z"/>
  <path fill="#0F388D" d="M362.974 205.371l8.729 35.704-4.365-31.612z"/>
  <path fill="#0D3481" d="M356.238 221.597l15.465 19.478-8.729-35.704z"/>
  <path fill="#0B2E71" d="M371.632 241.075l1.054-13.865 1.064 35.558-2.047-21.693z"/>
  <path fill="#0E2F77" d="M369.111 269.176l4.639-6.408-2.047-21.693z"/>
  <path fill="#0E2969" d="M370.002 285.504l-3.709 1.787 7.457-24.523z"/>
  <path fill="#0C2A69" d="M366.293 287.291l7.457-24.523-4.639 6.408z"/>
  <path fill="#123180" d="M369.111 269.176l2.592-28.101-7.945 9.374z"/>
  <path fill="#112B70" d="M366.293 287.291l2.818-18.115-15.324 25.757z"/>
  <path fill="#12378C" d="M356.238 221.597l15.465 19.478-7.945 9.374z"/>
  <path fill="#122E7B" d="M369.111 269.176l-5.353-18.727-8.079 23.067z"/>
  <path fill="#11296C" d="M353.025 318.74l13.268-31.449-12.413 22.927z"/>
  <path fill="#142A72" d="M353.88 310.218l12.413-22.927-12.506 7.642z"/>
  <path d="M366.293 287.291l-13.268 31.449L370 285.5l-3.707 1.791zm-25.276 45.778l12.008-14.329 0.855-8.522-12.863 22.851zm-15.486 13.212l15.486-13.212-16.366 7.531 0.88 5.681z" fill="#112768"/>
  <path fill="#1C226A" d="M235.149 355.485l-15.646 3.827 0.477-10.92z"/>
  <path fill="#182B7A" d="M148.162 206.853l4.313-1.597-10.906 24.765z"/>
  <path fill="#1F308D" d="M141.569 230.021l8.257-1.536 2.649-23.229z"/>
  <path fill="#1E2B7F" d="M142.062 259.764l-0.493-29.743 8.257-1.536z"/>
  <path d="M325.721 183.962l-16.605 19.024 28.873 4.771-12.268-23.795zm-144.9-19.511l21.2-14.5-18.916 9.4-2.284 5.1z" fill="#1346B5"/>
  <path fill="#1244AC" d="M183.098 159.351l29.082-17.023-10.166 7.62-18.916 9.403"/>
  <path fill="#0E4AB6" d="M202.014 149.948l26.556-12.659-16.39 5.039z"/>
  <path d="M303.3 171.859l5.818 31.127 16.605-19.024-22.423-12.103zm-85.11-23.386l24.738-9.893-14.356-1.291-10.382 11.184z" fill="#0E4BBA"/>
  <path fill="#0A4EBC" d="M248.657 133.663l-20.087 3.626 14.356 1.291z"/>
  <path fill="#0C54CC" d="M267.655 138.334l-24.729 0.246 5.731-4.917"/>
  <path d="M314.368 150.071l-14.417 1.529 29 18.579-14.583-20.108zm-46.713-11.737l32.2 4.24-19.347-6.883-12.853 2.643z" fill="#0B4BB4"/>
  <path fill="#0C3889" d="M314.368 150.071l-14.509-7.497 16.124 6.33z"/>
  <path d="M146.622 289.139l9.52 7.835-14.079-37.21 4.559 29.375zm131.394 74l8.369-19.707-30.5 8.195 22.131 11.512zm8.369-19.707l25.5 7.076 1.547-19.718-27.047 12.642z" fill="#202575"/>
  <path fill="#1B2773" d="M324.651 340.597l-11.222-9.812 27.114-18.021z"/>
  <path fill="#15276D" d="M340.544 312.764l-15.893 27.833 16.366-7.528 12.863-22.851z"/>
  <path d="M315.983 148.9l-1.615 1.167 20.185 12.092-18.57-13.259zm-16.032 2.7l14.417-1.534-14.509-7.5 0.092 9.034z" fill="#0C409D"/>
  <path d="M248.657 133.663l19 4.671 12.857-2.643-31.857-2.028zm51.2 8.911l-32.2-4.24 32.3 13.271-0.1-9.031z" fill="#0B4CB7"/>
  <path fill="#0B55CE" d="M267.655 138.334l7.901 13.422 24.395-0.151z"/>
  <path fill="#0A52C5" d="M267.655 138.334l7.901 13.422-26.316-2.12z"/>
  <path fill="#0951C4" d="M242.926 138.58l6.314 11.056 18.415-11.302z"/>
  <path fill="#0B50C4" d="M218.188 148.473l24.738-9.893 6.314 11.056z"/>
  <path d="M202.014 149.948l16.174-1.475 10.382-11.184-26.556 12.659zm16.174-1.475l16.786 15.319 14.266-14.156-31.052-1.163z" fill="#0F4DBF"/>
  <path fill="#1546B6" d="M218.188 148.473l-27.326 25.626 11.152-24.151z"/>
  <path fill="#1549BD" d="M190.862 174.099L208.299 177l9.889-28.527z"/>
  <path fill="#144BC3" d="M208.299 177l9.889-28.527 16.787 15.319z"/>
  <path fill="#173794" d="M164.922 179.63l1.062 10.309 14.834-25.488z"/>
  <path fill="#192F84" d="M152.475 205.256l12.447-25.626 1.062 10.309z"/>
  <path fill="#1A389B" d="M165.984 189.939l14.834-25.488 10.044 9.648z"/>
  <path fill="#1D3089" d="M165.086 212.036l0.898-22.097-13.509 15.317z"/>
  <path fill="#1E389F" d="M165.086 212.036l0.898-22.097 17.53 14.233z"/>
  <path fill="#1C40AF" d="M183.514 204.172l7.348-30.073-24.878 15.84z"/>
  <path fill="#1E41B7" d="M183.514 204.172l7.348-30.073L208.299 177z"/>
  <path fill="#192C7D" d="M149.826 228.485l2.649-23.229 12.611 6.78z"/>
  <path d="M278.016 363.134l23.445-3.641 10.42-8.99-33.865 12.631zm-137.679-97.962l1.726-5.408-0.494-29.743-1.232 35.151zm9.489-36.687l-7.763 31.279 14.079 37.21-6.871-43.109 0.555-25.38z" fill="#162467"/>
  <path fill="#1A236A" d="M156.141 296.974l11.615 1.628-8.133-18.988z"/>
  <path d="M324.651 340.6l-12.77 9.906-10.42 8.99 24.07-13.212-0.88-5.684zm-68.314 25.975l18.195 0.507 26.929-7.586-23.445 3.641-21.679 3.438zm-89.358-48.01l12.207 2.348-11.43-22.313-0.777 19.965z" fill="#132668"/>
  <path d="M219.98 348.392l-20.668-15.911-8.59 8.26 28.778 18.571 0.48-10.92zm-73.358-59.253l13.863 27.285-4.343-19.45-9.52-7.835zm-6.285-23.967l6.285 23.967-4.559-29.375-1.726 5.408zm115.547 86.45l-35.9-3.23 15.169 7.093-15.653 3.827-18.834-5.888 20.822 9.057 34.846 4.091 21.679-3.438-22.129-11.512zM167.756 298.6l-11.614-1.628 10.837 21.588 0.777-19.96zm-18.485-44.737l6.871 43.109 3.481-17.361-10.352-25.748zm29.915 67.045l-12.207-2.348-6.494-2.138 9.778 13.179 13.52 12.4 16.886 11.424-9.947-12.683-11.536-19.834z" fill="#1B2268"/>
  <path fill="#212A81" d="M149.826 228.485l16.39 25.356-1.13-41.805z"/>
  <path fill="#21267A" d="M149.271 253.865l10.352 25.749 6.593-25.773z"/>
  <path fill="#262781" d="M159.623 279.614l6.593-25.773 8.194 20.365z"/>
  <path fill="#272379" d="M167.756 298.602l31.424 19.476-24.77-43.872z"/>
  <path d="M160.485 316.424l6.494 2.138-10.837-21.588 4.343 19.45zm69.415 11.205l-9.918 20.763 35.9 3.23-25.982-23.993zM167.756 298.6l11.43 22.308 11.536 19.831 8.59-8.26-0.132-14.4-31.424-19.479z" fill="#1E226D"/>
  <path d="M313.428 330.785l-1.547 19.715 12.77-9.906-11.223-9.809zm-54.935-2.831l-2.609 23.668 30.5-8.195-1.084-26.606-26.807 11.133z" fill="#222475"/>
  <path d="M149.271 253.865l16.944-0.024-16.389-25.356-0.555 25.38zM285.3 316.821l1.086 26.606 27.043-12.642-28.129-13.964z" fill="#23277D"/>
  <path fill="#1E2776" d="M285.299 316.821l17.405-15.762 10.725 29.726z"/>
  <path fill="#222B86" d="M313.429 330.785l13.156-39.85-23.881 10.124z"/>
  <path fill="#192974" d="M340.543 312.764l-27.114 18.021 13.156-39.85z"/>
  <path fill="#172A75" d="M353.787 294.933l-27.202-3.998 13.959 21.829 13.336-2.546z"/>
  <path fill="#172D7D" d="M355.679 273.516l-29.094 17.419 27.202 3.998 15.324-25.757z"/>
  <path d="M152.475 205.256l12.447-25.626-16.76 27.224 4.313-1.598zm192.352 31.717l10.852 36.543 8.079-23.068-18.931-13.475z" fill="#18338A"/>
  <path fill="#153791" d="M363.758 250.449l-7.52-28.852-11.411 15.376z"/>
  <path fill="#1B318B" d="M326.585 290.935l29.094-17.419-28.198-12.554z"/>
  <path fill="#242D8D" d="M326.585 290.935l-26.367-26.645 2.486 36.769z"/>
  <path fill="#2A2B8F" d="M285.299 316.821l-20.243-17.925 37.648 2.163z"/>
  <path d="M167.756 298.6l6.654-24.4-14.787 5.407 8.133 18.993zm97.3 0.294l-6.563 29.058 26.807-11.131-20.244-17.927z" fill="#27267F"/>
  <path fill="#2D2381" d="M223.15 304.839l-19.487-9.906-4.483 23.145 30.718 9.551 28.595 0.325z"/>
  <path fill="#2F2485" d="M258.492 327.954l6.564-29.058-41.906 5.943z"/>
  <path fill="#233196" d="M166.216 253.841l8.406-26.837-9.536-14.968z"/>
  <path fill="#293CB7" d="M183.514 204.172l36.893-10.756-19.487 39.815z"/>
  <path fill="#25339C" d="M326.585 290.935l-26.367-26.645 27.263-3.328z"/>
  <path fill="#19348F" d="M355.679 273.516l-10.852-36.543-17.346 23.989z"/>
  <path fill="#2A309A" d="M302.704 301.059L272.551 271.9l27.667-7.61z"/>
  <path fill="#302B96" d="M265.056 298.896l37.648 2.163-30.153-29.159z"/>
  <path fill="#3630A7" d="M265.056 298.896l-20.622-16.794 28.117-10.202z"/>
  <path d="M180.818 164.451l2.28-5.1-18.176 20.279 15.896-15.179zm157.171 43.306l6.838 29.216 11.411-15.373-18.249-13.843z" fill="#173DA2"/>
  <path fill="#2A36A8" d="M183.514 204.172l17.406 29.059-26.298-6.227z"/>
  <path fill="#312E9F" d="M174.622 227.004l26.298 6.227-17.784 28.014z"/>
  <path fill="#184DCD" d="M220.407 193.416l14.568-29.624L208.299 177z"/>
  <path fill="#272986" d="M166.216 253.841l16.92 7.404-8.726 12.961z"/>
  <path fill="#2C2584" d="M183.136 261.245l-8.726 12.961 24.77 43.872 4.483-23.145z"/>
  <path fill="#32268B" d="M203.663 294.933l2.744-40.758-23.271 7.07z"/>
  <path fill="#372999" d="M203.663 294.933l40.771-12.831-38.027-27.927z"/>
  <path fill="#392DA5" d="M244.434 282.102l-3.973-31.512-34.054 3.585z"/>
  <path fill="#3338BC" d="M240.461 250.59l28.757-10.755 3.333 32.065z"/>
  <path fill="#362896" d="M223.15 304.839l41.906-5.943-20.622-16.794z"/>
  <path fill="#35268F" d="M223.15 304.839l-19.487-9.906 40.771-12.831z"/>
  <path fill="#2648D3" d="M220.407 193.416l24.973 2.642-10.405-32.266z"/>
  <path fill="#1057DC" d="M258.245 173.226l-23.27-9.434 10.405 32.266z"/>
  <path fill="#1653DA" d="M258.245 173.226l24.784 16.983-37.649 5.849z"/>
  <path fill="#2B46D5" d="M245.38 196.058l36.93 19.586-13.092 24.191z"/>
  <path fill="#244AD7" d="M282.31 215.644l0.719-25.435-37.649 5.849z"/>
  <path fill="#2547CF" d="M282.31 215.644l0.719-25.435 26.087 12.776z"/>
  <path fill="#333CC5" d="M245.38 196.058l23.838 43.777-41.811-20.945z"/>
  <path fill="#3833B6" d="M240.461 250.59l28.757-10.755-41.811-20.945z"/>
  <path fill="#2A41C6" d="M269.218 239.835l36.876-6.737-23.784-17.454z"/>
  <path fill="#2045C1" d="M309.116 202.985l-3.022 30.113-23.784-17.454z"/>
  <path fill="#1B43B7" d="M309.116 202.985l17.406 23.641-20.428 6.472z"/>
  <path fill="#1742AF" d="M337.989 207.757l-28.873-4.772 17.406 23.641z"/>
  <path d="M190.862 174.1l11.152-24.151-21.2 14.5 10.048 9.651zm147.127 33.658l-11.467 18.869 18.305 10.347-6.838-29.216z" fill="#1740A9"/>
  <path fill="#1B3CA4" d="M327.481 260.962l17.346-23.989-18.305-10.347z"/>
  <path fill="#1F3DAD" d="M327.481 260.962l-0.959-34.336-20.428 6.472z"/>
  <path d="M183.515 204.172l36.892-10.756L208.3 177l-24.785 27.172zm85.7 35.663l31 24.455 5.876-31.191-36.876 6.736z" fill="#2543C3"/>
  <path fill="#2E37B2" d="M272.551 271.9l27.667-7.61-31-24.455z"/>
  <path fill="#2D40C7" d="M220.407 193.416l7 25.474 17.973-22.832z"/>
  <path fill="#3537B8" d="M220.407 193.416l-19.487 39.815 26.487-14.341z"/>
  <path fill="#3931B0" d="M227.407 218.89l-21 35.285 34.054-3.585z"/>
  <path d="M240.461 250.59l3.973 31.512 28.117-10.2-32.09-21.312zm-34.054 3.585l21-35.285-26.487 14.341 5.487 20.944z" fill="#3735B8"/>
  <path fill="#342892" d="M183.136 261.245l17.784-28.014 5.487 20.944z"/>
  <path d="M200.669 353.424l18.834 5.888-28.781-18.571 9.947 12.683zm-1.357-20.943l20.668 15.911 9.918-20.763-30.718-9.551 0.132 14.403zm56.572 19.141l2.609-23.668-28.595-0.325 25.986 23.993zm30.5-8.195l-8.369 19.707 33.866-12.634-25.497-7.073z" fill="#232372"/>
  <path fill="#2A2F96" d="M166.216 253.841l8.406-26.837 8.514 34.241z"/>
  <path d="M174.622 227l8.893-22.832-18.429 7.864L174.622 227zm131.472 6.1l-5.876 31.191 27.263-3.328-21.387-27.863z" fill="#2636A5"/>
  <path d="M374.274 262.8v-0.055l-1.064-35.552v-0.041c0-0.012 0-0.024-0.006-0.036-0.006-0.012-0.006-0.032-0.01-0.047v-0.011l-5.345-17.74v-0.011l-0.011-0.029c0-0.013-0.01-0.025-0.016-0.038l-0.007-0.016-15.293-28.86-0.009-0.014-0.019-0.03-0.017-0.025-0.011-0.015-0.016-0.018-0.011-0.013-17.503-18.449-0.008-0.008-0.012-0.012-0.033-0.026-0.023-0.021-18.565-13.255h-0.009l-0.017-0.012-0.039-0.021-0.04-0.02h-0.008l-16.113-6.325h-0.025l-19.356-6.9h-0.018l-0.037-0.01-0.034-0.007-0.036-0.005h-0.018l-31.855-2.029h-0.127l-20.087 3.626h-0.043l-0.036 0.01-16.372 5.033-0.036 0.014a0.317 0.317 0 0 0-0.042 0.019l-0.021 0.01h-0.007L182.832 158.9h-0.006l-0.024 0.016-0.023 0.015-0.019 0.017-0.018 0.014-0.02 0.022-0.016 0.015-0.007 0.007-18.17 20.274-0.007 0.01-0.013 0.015-0.012 0.016-0.016 0.024-0.008 0.01-0.006 0.01-16.752 27.212-0.008 0.016-0.016 0.028-0.014 0.033c0 0.013-0.01 0.025-0.014 0.038l-0.006 0.016-6.593 23.168v0.076a0.26 0.26 0 0 0-0.005 0.039v0.01l-1.232 35.151v0.087a0.156 0.156 0 0 0 0.008 0.043v0.035l6.281 23.951v0.01l0.006 0.018a0.434 0.434 0 0 0 0.02 0.05c0 0.008 0.006 0.017 0.01 0.025l13.86 27.278 0.009 0.014 0.028 0.044 0.007 0.013 9.772 13.171 0.012 0.015c0.009 0.011 0.02 0.02 0.029 0.03a0.25 0.25 0 0 0 0.022 0.024l13.52 12.4 0.034 0.025a0.3 0.3 0 0 0 0.027 0.023l16.885 11.423 0.012 0.006a0.326 0.326 0 0 0 0.04 0.024l0.022 0.011h0.007l20.822 9.058 0.021 0.006 0.046 0.016 0.024 0.007 0.037 0.006h0.021l34.846 4.091h0.047l18.195 0.507h0.019a0.497 0.497 0 0 0 0.1-0.01l0.022-0.007h0.015L301.6 360l0.016-0.006 0.023-0.007 0.021-0.01 0.015-0.007 0.032-0.014 0.011-0.006 24.056-13.2h0.007l0.01-0.006c0.014-0.008 0.026-0.018 0.039-0.027l0.032-0.023 15.486-13.213 0.016-0.016 0.02-0.019 0.02-0.021 0.006-0.006 12.006-14.325 0.005-0.007a0.449 0.449 0 0 0 0.042-0.062l0.015-0.022v-0.007l16.977-33.237c0-0.008 0.006-0.016 0.01-0.024a0.437 0.437 0 0 0 0.017-0.04v-0.018a0.3 0.3 0 0 0 0.011-0.043c0-0.009 0.006-0.018 0.008-0.028l3.747-22.73v-0.038l0.026-0.038zm-190.163 78.787l-3.5-3.212 7.877 6.172-4.377-2.96zm51.108 13.351l-12.307-5.755 29.13 2.62-16.823 3.135zm4.488-104.8l-32.312 3.4 19.926-33.48 12.386 30.08zm-11.278-30.152l39.477 19.776-27.152 10.158-12.325-29.934zM240 251.166l3.756 29.788-35.947-26.4L240 251.166zm3.285 30.746L204.24 294.2l2.627-39.035 36.418 26.747zm-2.161-30.249l30.265 20.1-26.518 9.621-3.747-29.721zm0.482-0.941l27.156-10.157 3.147 30.28-30.303-20.123zm41.723-34.979l25.171-11.885-2.838 28.271-22.333-16.386zM304.8 232.8l-34.6 6.32 12.283-22.7L304.8 232.8zm-35.583 5.931l-22.539-41.391 34.922 18.52-12.383 22.871zm-1.263-0.118l-39.735-19.9 17.081-21.7 22.654 41.6zM206.6 252.826l-5.063-19.33 24.445-13.235-19.382 32.565zm-3.347 40.417l-19.312-31.692 21.889-6.651-2.577 38.343zm39.429-10.043l-19.646 20.988-17.987-9.144 37.633-11.844zm29.089-10.462l-7.007 25.238-19.279-15.7 26.286-9.538zm-1.9-31.723l29.206 23.04-26.067 7.17-3.139-30.21zm0.586-0.877l34.978-6.389-5.573 29.586-29.405-23.197zm36.241-7.786L309.5 204.4l16.159 21.948-18.961 6.004zm19.317-5.018l0.894 32.016-19.941-25.981 19.047-6.035zM282.861 214.8l0.671-23.763 24.368 11.94-25.039 11.823zm-1.053-0.02l-34.786-18.449 35.463-5.509-0.677 23.958zm-54.17 2.962l-6.519-23.725 23.259 2.46-16.74 21.265zm-0.849 0.882l-24.674 13.359 18.153-37.083 6.521 23.724zm-21.02 35.193l-21.429 6.511 16.377-25.8 5.052 19.289zm-3.881 39.211l-26.755-18.957 7.981-11.854 18.774 30.811zm2.16 2.687l17.98 9.14-22.117 12.216 4.137-21.356zm40.435-12.9l19.309 15.725-39.239 5.566 19.93-21.291zm28.339-9.925l28.5 27.559-35.584-2.044 7.084-25.515zm0.756-0.732l26.158-7.195 2.35 34.764-28.508-27.569zm32.816-37.81l20.109 26.2-25.634 3.129 5.525-29.329zm20.68-6.81l16.983 9.6-16.094 22.262-0.889-31.862zm0.179-1.106l10.517-17.302 6.272 26.8-16.789-9.498zm-0.773-0.754l-16.174-21.968 26.83 4.434-10.656 17.534zm-42.523-35.6l19-17.2 5.454 29.173-24.454-11.973zm-37.587 5.295l12.052-21.389 23.217 15.909-35.269 5.48zm-25.159-2.4l13.662-27.782 9.758 30.26-23.42-2.478zm-20.338 39.156l-16.558-27.643 35.1-10.232-18.542 37.875zm-17.522 27.8l-8.009-32.212 24.739 5.857-16.73 26.355zm-8.823 13.163l-7.344-18.251 15.164 6.636-7.82 11.615zm28.554 22.076l-4.147 21.409-22.911-40.581 27.058 19.172zm19.749 10.451l6.283 21.219-28.6-8.893 22.317-12.326zm41.544-6.093l-6.229 27.574-33.54-21.936 39.769-5.638zm37.046 1.988l-16.125 14.6-18.757-16.609 34.882 2.009zm-0.582-35.846l24.827 25.089-22.487 9.533-2.34-34.622zm0.507-0.983l25.59-3.124-0.841 28.135-24.749-25.011zm43.281-26.535l10.222 34.425-26.563-11.826 16.341-22.599zm-5.793-29.089l16.672 12.639-10.425 14.047-6.247-26.686zm-28.7-6.437l15.475-17.729 11.434 22.176-26.909-4.447zm-0.7-0.8l-5.416-28.976 20.874 11.267-15.458 17.709zm-26.45-12.281L259.87 173.7l42.017-1.275-18.903 17.118zm-37.472 5.212l-9.691-30.05 21.673 8.786-11.982 21.264zm-25.2-2.344l-11.222-15.215 24.724-12.242-13.502 27.457zm-0.779 0.715l-34.373 10.021 23.091-25.316 11.282 15.295zm-19.708 39.309l-24.5-5.8 8.283-21.268 16.217 27.068zm-17.462 27.9l-15.508-6.787 7.7-24.6 7.808 31.387zM173.72 273.9l-13.34 4.878 5.947-23.249 7.393 18.371zm23.993 42.651l-29.346-18.187 6.214-22.784 23.132 40.971zm29.881 10.913l-27.761 4.4-0.12-13.072 27.881 8.672zm-3.533-21.4l32.639 21.345-26.4-0.3-6.239-21.045zm41.312-6.184l18.949 16.779-25.092 10.42 6.143-27.199zm37.1 2.1l10.014 27.756-26.265-13.038 16.251-14.718zm0.893-0.628l22.354-9.476-12.316 37.3-10.038-27.824zm24.615-39.587l26.558 11.824-27.4 16.405 0.842-28.229zm17.784-23.475l17.364 12.361-7.411 21.159-9.953-33.52zm-0.2-1.43l10.437-14.063 6.878 26.388-17.315-12.325zm-6.964-29.292l4.846-15.028 11.542 27.457-16.388-12.429zm-0.728-1.173l-11.043-21.418 15.9 6.355-4.857 15.063zm-32.722-34.127l23.122-1.51-2.911 12.419-20.211-10.909zm-45.783 0.4l16.28-20.192 26.09 18.906-42.37 1.286zm-0.962-0.484l-8.382-21.956 24.5 1.973-16.118 19.983zm-1.087 0.1L235.91 163.6l13.126-13.025 8.283 21.709zm-48.106 3.674l9.207-26.559 15.628 14.262-24.835 12.297zm-24.7 26.336l6.742-27.6 16 2.663-22.742 24.937zm-10.006 23.551l-8.646-13.57 16.707-7.13-8.061 20.7zm-0.462 1.234l-7.39 23.592-0.993-36.75 8.383 13.158zm-8.509 27.287l-6.027 23.558-9.462-23.536 15.489-0.022zm-15.728-1.028l0.5-23.129 14.936 23.107-15.436 0.022zm23.825 21.71l-5.99 21.959-7.32-17.092 13.31-4.867zm24.036 42.712l-18.187 2.576-10.4-20.291 28.587 17.715zm0.988 0.921l0.118 12.885-18-10.351 17.882-2.534zm30.333 9.623l-9.207 19.274-19.183-14.77 28.39-4.504zm1.073 0.195l24.328 22.46-33.612-3.023 9.284-19.437zm1.193-0.33l26.648 0.3-2.431 22.055-24.217-22.355zM284.8 317.6l1.017 24.917-26.117-14.495 25.1-10.422zm1.058 0.091l26.356 13.083-25.34 11.846-1.016-24.929zm40.876-25.536l13.084 20.462-25.412 16.883 12.328-37.345zm0.911-0.529l25.192 3.7-12.265 16.514-12.927-20.214zm0.469-0.992l26.95-16.134-1.753 19.835-25.197-3.701zm35.589-38.444l4.758 16.647-11.94 3.858 7.182-20.505zm-6.331-28.31l13.647 17.189-7.011 8.271-6.636-25.46zm-12.77-31.307l17.724 12.982-6.095 14.68-11.629-27.662zm-18.269-8.926l2.857-12.186 12.765 18.43-15.622-6.244zM303.74 171.3l-3.076-18.619 26.658 17.079-23.582 1.54zm-1.17-0.622l-25.407-18.41 22.342-0.139 3.065 18.549zm-51.684-21.44l16.587-10.18 7.116 12.09-23.703-1.91zm-15.927 13.824l-15.359-14.01 28.408 1.064-13.049 12.946zm-27.013 13.343L192 173.756l24.995-23.44-9.049 26.089zM183.2 203.24l-16.318-13.25 23.158-14.744-6.84 27.994zm-0.693 0.791l-16.861 7.195 0.822-20.218 16.039 13.023zm-16.868 47.948l-15.149-23.436 14.1-15.2 1.049 38.636zm-6.563 27.685L156.2 294l-5.674-35.6 8.55 21.264zm0.73 1.714l7.1 16.575-10.138-1.422 3.038-15.153zm18.42 38.812l-10.7-2.059 0.681-17.5 10.019 19.559zm20.217 12.4l-7.6 7.311-10.21-17.552 17.81 10.241zm0.907 0.586l18.258 14.056-25.846-6.759 7.588-7.297zm59.579-4.376L285 343.257l-28.5 7.658 2.429-22.115zm53.9 2.846l-1.427 18.183L287.9 343.3l24.929-11.654zm26.153-17.213l-14.473 25.347-10.221-8.935 24.694-16.412zm14.284-17.919l0.08 13.273L341.77 312l11.496-15.486zm2.9-22.6l11.774-3.8-13.433 22.576 1.659-18.776zm8.168-23.335l6.685-7.886-2.181 23.642-4.504-15.756zm-7.5-29.061l6-14.456 7.777 31.809-13.777-17.353zm-12.768-30.636l4.216-7.364L361 203.274l-16.934-12.392zm-0.732-0.839l-12.472-18.007 16.689 10.642-4.217 7.365zm-41.849-38.069l12.626-1.344 12.773 17.616-25.399-16.272zm-25.638-0.74l-6.947-11.82 28.43 11.682-21.483 0.138zm-26.428-2.324l-5.6-9.809 21.937-0.218-16.337 10.027zm-1.114 0.171l-27.631-1.035 22.013-8.8 5.618 9.835zm-55.843 22.793l9.894-21.425 14.349-1.309-24.243 22.734zm-1.778 1.339l-9.044-8.688 19.088-13.061-10.044 21.749zm-0.678 0.807l-22.487 14.318 13.409-23.039 9.078 8.721zm-25.421 37.16l-11.286-6.068L165.4 191.4l-0.815 19.78zm-0.356 1l-13.707 14.775 2.38-20.866 11.327 6.091zm-15.479 41.432l-5.795 4.743 6.241-25.147-0.446 20.404zm0.145 1.24l5.916 37.118-12.123-32.039 6.207-5.079zm18.317 44.2l-0.679 17.443-9.472-18.866 10.151 1.423zm11.639 22.324l9.621 16.54-19.8-18.5 10.179 1.96zm40.585 27.412l-0.419 9.581-25.251-16.289 25.67 6.708zm1.036 0.41l13.1 6.127-13.516 3.307 0.416-9.434zm34.9 3.049l0.407 13.438-19.045-9.966 18.638-3.472zm30.1-8.037l-7.725 18.191-20.43-10.626 28.155-7.565zm1.21-0.157l23.492 6.519-31.2 11.639 7.708-18.158zm27.182-12.187l9.954 8.7-11.318 8.792 1.364-17.492zm27.01-18.635l11.474-2.192-25.148 26.139 13.674-23.947zm13.513-5.072l-0.079-12.937 10.585-6.468-10.506 19.405zm0.93-14.785l12.849-21.595-2.356 15.191-10.493 6.404zm16.385-46.635l1.5 15.877-3.395 4.691 1.895-20.568zm-7.8-39.777l2.936 2.753 2.937 21.269-5.873-24.022zm-14.882-24.259l2.763-1.386 7.987 18.1-10.75-16.714zm-19.32-12.667l4.849-6.943 11.869 17.6-16.718-10.657zm-0.753-0.759L316.3 151.842l17.5 10.482-4.853 6.953zm-28.472-18.255l-0.078-7.58 12.177 6.292-12.099 1.288zm-1.055-0.2l-27.832-11.436 27.752 3.654 0.08 7.782zm-55.057-12.782l4.431-3.8 14.693 3.612-19.124 0.188zm-24.2 9.077l8.616-9.282 11.914 1.071-20.53 8.211zm-2.226 0.852l-13.047 1.19 21.422-10.212-8.375 9.022zm-35.88 15l1.443-3.228 11.974-5.952-13.417 9.18zm-15.717 25.313l-0.87-8.446L178.5 167.4l-12.16 20.882zm-0.905 1.486l-10.8 12.246 9.951-20.488 0.849 8.242zm-16.09 38.276l-6.9 1.283 9.107-20.681-2.207 19.398zm-0.229 1.111l-6.6 26.576-0.419-25.271 7.019-1.305zm5.832 66.161l-7.839-6.451-3.754-24.187 11.593 30.638zm10.991 22.355l-5.007-1.649-3.349-15 8.356 16.649zm21.4 20.635l-16.634-9.057-2.67-8.977 19.304 18.034zm3.034 2.848l7.2 9.183-22.015-17.248 14.815 8.065zm2.694 1.731l22.9 14.776-14.985-4.685-7.915-10.091zm42.013 13.161l17.8 9.313-30.938-6.1 13.138-3.213zm21.356-3.54l19.923 10.363-19.515 3.095-0.408-13.458zm52.882-0.483L301.231 359l-18.2 2.826 26.287-9.803zm14.949-10.46l0.673 4.354-10.455 3.234 9.782-7.588zm27.127-28l-10.754 19.105-13.682 6.294 24.436-25.399zm3-3.184l7.2-13.3-7.7 18.246 0.5-4.946zm15.219-40.992l2.719-3.756L367.96 280l1.653-10.613zm2.616-28.347V241l-0.039-0.279 0.271-3.561 0.276 9.22-0.508-5.34zm-0.723-5.243l-2.72-19.705 3.368 11.18-0.648 8.525zm-8.092-30.73l-4.965-11.252 6.948 13.111-1.983-1.859zm-14.97-23.239l-9.915-14.705 12.649 13.334-2.734 1.371zm-33.122-31.798l0.663-0.479 7.622 5.442-8.285-4.963zm-1-0.574l-5.154-2.663 5.727 2.248-0.573 0.415zm-43.506-11.236l9.658-1.985 14.533 5.17-24.191-3.185zm-3.151-0.425l-13.151-3.233 22.051 1.4-8.9 1.833zm-24.913 0.242l-10.258-0.922 14.352-2.591-4.094 3.513zm-36.2 9.165l5.869-4.4 9.461-2.909-15.33 7.309zm-4.817 2.3l-5.091 2.53 7.827-4.58-2.736 2.05zm-21.358 14.644l-6.039 5.767 6.905-7.7-0.866 1.933zm-28.285 40.694l-2.685 0.994 10.431-16.944-7.746 15.95zm-3.5 2.416l2.9-1.073-7.327 16.638 4.427-15.565zm-7.215 43.173l0.154 9.261-0.531 1.681 0.377-10.942zm0.5 11.627l2.642 17.022-3.642-13.888 1-3.134zm13.782 35.211l3.393 15.192-10.829-21.312 7.436 6.12zm10.886 21.71l2.355 7.92-7.013-9.453 4.658 1.533zm52.607 40.782l0.983 1.566-10.294-4.478 9.311 2.912zm2.643 2.233l-1.208-1.926 22.392 4.413-21.184-2.487zm54.851 1.893l-2.355 2.665-12.292-0.342 14.647-2.323zm1.631-0.258l14.653-2.276-16.831 4.741 2.178-2.465zm33.857-12.652l8.593-2.658-15.153 8.318 6.56-5.66zm13.765-5.7l-0.675-4.361 12.557-5.776-11.882 10.137zm27.2-32.6l-0.588 5.861-8.258 9.853 8.846-15.714zm13.6-24.99l2.122-1.022-9.712 19.014 7.59-17.992zm2.826-2.527l-2.382 1.147 4.788-15.746-2.406 14.599z" fill="url(#a)"/>
  <path d="M374.274 262.8v-0.055l-1.064-35.552v-0.041c0-0.012 0-0.024-0.006-0.036-0.006-0.012-0.006-0.032-0.01-0.047v-0.011l-5.345-17.74v-0.011l-0.011-0.029c0-0.013-0.01-0.025-0.016-0.038l-0.007-0.016-15.293-28.86-0.009-0.014-0.019-0.03-0.017-0.025-0.011-0.015-0.016-0.018-0.011-0.013-17.503-18.449-0.008-0.008-0.012-0.012-0.033-0.026-0.023-0.021-18.565-13.255h-0.009l-0.017-0.012-0.039-0.021-0.04-0.02h-0.008l-16.113-6.325h-0.025l-19.356-6.9h-0.018l-0.037-0.01-0.034-0.007-0.036-0.005h-0.018l-31.855-2.029h-0.127l-20.087 3.626h-0.043l-0.036 0.01-16.372 5.033-0.036 0.014a0.317 0.317 0 0 0-0.042 0.019l-0.021 0.01h-0.007L182.832 158.9h-0.006l-0.024 0.016-0.023 0.015-0.019 0.017-0.018 0.014-0.02 0.022-0.016 0.015-0.007 0.007-18.17 20.274-0.007 0.01-0.013 0.015-0.012 0.016-0.016 0.024-0.008 0.01-0.006 0.01-16.752 27.212-0.008 0.016-0.016 0.028-0.014 0.033c0 0.013-0.01 0.025-0.014 0.038l-0.006 0.016-6.593 23.168v0.076a0.26 0.26 0 0 0-0.005 0.039v0.01l-1.232 35.151v0.087a0.156 0.156 0 0 0 0.008 0.043v0.035l6.281 23.951v0.01l0.006 0.018a0.434 0.434 0 0 0 0.02 0.05c0 0.008 0.006 0.017 0.01 0.025l13.86 27.278 0.009 0.014 0.028 0.044 0.007 0.013 9.772 13.171 0.012 0.015c0.009 0.011 0.02 0.02 0.029 0.03a0.25 0.25 0 0 0 0.022 0.024l13.52 12.4 0.034 0.025a0.3 0.3 0 0 0 0.027 0.023l16.885 11.423 0.012 0.006a0.326 0.326 0 0 0 0.04 0.024l0.022 0.011h0.007l20.822 9.058 0.021 0.006 0.046 0.016 0.024 0.007 0.037 0.006h0.021l34.846 4.091h0.047l18.195 0.507h0.019a0.497 0.497 0 0 0 0.1-0.01l0.022-0.007h0.015L301.6 360l0.016-0.006 0.023-0.007 0.021-0.01 0.015-0.007 0.032-0.014 0.011-0.006 24.056-13.2h0.007l0.01-0.006c0.014-0.008 0.026-0.018 0.039-0.027l0.032-0.023 15.486-13.213 0.016-0.016 0.02-0.019 0.02-0.021 0.006-0.006 12.006-14.325 0.005-0.007a0.449 0.449 0 0 0 0.042-0.062l0.015-0.022v-0.007l16.977-33.237c0-0.008 0.006-0.016 0.01-0.024a0.437 0.437 0 0 0 0.017-0.04v-0.018a0.3 0.3 0 0 0 0.011-0.043c0-0.009 0.006-0.018 0.008-0.028l3.747-22.73v-0.038l0.026-0.038zm-190.163 78.787l-3.5-3.212 7.877 6.172-4.377-2.96zm51.108 13.351l-12.307-5.755 29.13 2.62-16.823 3.135zm4.488-104.8l-32.312 3.4 19.926-33.48 12.386 30.08zm-11.278-30.152l39.477 19.776-27.152 10.158-12.325-29.934zM240 251.166l3.756 29.788-35.947-26.4L240 251.166zm3.285 30.746L204.24 294.2l2.627-39.035 36.418 26.747zm-2.161-30.249l30.265 20.1-26.518 9.621-3.747-29.721zm0.482-0.941l27.156-10.157 3.147 30.28-30.303-20.123zm41.723-34.979l25.171-11.885-2.838 28.271-22.333-16.386zM304.8 232.8l-34.6 6.32 12.283-22.7L304.8 232.8zm-35.583 5.931l-22.539-41.391 34.922 18.52-12.383 22.871zm-1.263-0.118l-39.735-19.9 17.081-21.7 22.654 41.6zM206.6 252.826l-5.063-19.33 24.445-13.235-19.382 32.565zm-3.347 40.417l-19.312-31.692 21.889-6.651-2.577 38.343zm39.429-10.043l-19.646 20.988-17.987-9.144 37.633-11.844zm29.089-10.462l-7.007 25.238-19.279-15.7 26.286-9.538zm-1.9-31.723l29.206 23.04-26.067 7.17-3.139-30.21zm0.586-0.877l34.978-6.389-5.573 29.586-29.405-23.197zm36.241-7.786L309.5 204.4l16.159 21.948-18.961 6.004zm19.317-5.018l0.894 32.016-19.941-25.981 19.047-6.035zM282.861 214.8l0.671-23.763 24.368 11.94-25.039 11.823zm-1.053-0.02l-34.786-18.449 35.463-5.509-0.677 23.958zm-54.17 2.962l-6.519-23.725 23.259 2.46-16.74 21.265zm-0.849 0.882l-24.674 13.359 18.153-37.083 6.521 23.724zm-21.02 35.193l-21.429 6.511 16.377-25.8 5.052 19.289zm-3.881 39.211l-26.755-18.957 7.981-11.854 18.774 30.811zm2.16 2.687l17.98 9.14-22.117 12.216 4.137-21.356zm40.435-12.9l19.309 15.725-39.239 5.566 19.93-21.291zm28.339-9.925l28.5 27.559-35.584-2.044 7.084-25.515zm0.756-0.732l26.158-7.195 2.35 34.764-28.508-27.569zm32.816-37.81l20.109 26.2-25.634 3.129 5.525-29.329zm20.68-6.81l16.983 9.6-16.094 22.262-0.889-31.862zm0.179-1.106l10.517-17.302 6.272 26.8-16.789-9.498zm-0.773-0.754l-16.174-21.968 26.83 4.434-10.656 17.534zm-42.523-35.6l19-17.2 5.454 29.173-24.454-11.973zm-37.587 5.295l12.052-21.389 23.217 15.909-35.269 5.48zm-25.159-2.4l13.662-27.782 9.758 30.26-23.42-2.478zm-20.338 39.156l-16.558-27.643 35.1-10.232-18.542 37.875zm-17.522 27.8l-8.009-32.212 24.739 5.857-16.73 26.355zm-8.823 13.163l-7.344-18.251 15.164 6.636-7.82 11.615zm28.554 22.076l-4.147 21.409-22.911-40.581 27.058 19.172zm19.749 10.451l6.283 21.219-28.6-8.893 22.317-12.326zm41.544-6.093l-6.229 27.574-33.54-21.936 39.769-5.638zm37.046 1.988l-16.125 14.6-18.757-16.609 34.882 2.009zm-0.582-35.846l24.827 25.089-22.487 9.533-2.34-34.622zm0.507-0.983l25.59-3.124-0.841 28.135-24.749-25.011zm43.281-26.535l10.222 34.425-26.563-11.826 16.341-22.599zm-5.793-29.089l16.672 12.639-10.425 14.047-6.247-26.686zm-28.7-6.437l15.475-17.729 11.434 22.176-26.909-4.447zm-0.7-0.8l-5.416-28.976 20.874 11.267-15.458 17.709zm-26.45-12.281L259.87 173.7l42.017-1.275-18.903 17.118zm-37.472 5.212l-9.691-30.05 21.673 8.786-11.982 21.264zm-25.2-2.344l-11.222-15.215 24.724-12.242-13.502 27.457zm-0.779 0.715l-34.373 10.021 23.091-25.316 11.282 15.295zm-19.708 39.309l-24.5-5.8 8.283-21.268 16.217 27.068zm-17.462 27.9l-15.508-6.787 7.7-24.6 7.808 31.387zM173.72 273.9l-13.34 4.878 5.947-23.249 7.393 18.371zm23.993 42.651l-29.346-18.187 6.214-22.784 23.132 40.971zm29.881 10.913l-27.761 4.4-0.12-13.072 27.881 8.672zm-3.533-21.4l32.639 21.345-26.4-0.3-6.239-21.045zm41.312-6.184l18.949 16.779-25.092 10.42 6.143-27.199zm37.1 2.1l10.014 27.756-26.265-13.038 16.251-14.718zm0.893-0.628l22.354-9.476-12.316 37.3-10.038-27.824zm24.615-39.587l26.558 11.824-27.4 16.405 0.842-28.229zm17.784-23.475l17.364 12.361-7.411 21.159-9.953-33.52zm-0.2-1.43l10.437-14.063 6.878 26.388-17.315-12.325zm-6.964-29.292l4.846-15.028 11.542 27.457-16.388-12.429zm-0.728-1.173l-11.043-21.418 15.9 6.355-4.857 15.063zm-32.722-34.127l23.122-1.51-2.911 12.419-20.211-10.909zm-45.783 0.4l16.28-20.192 26.09 18.906-42.37 1.286zm-0.962-0.484l-8.382-21.956 24.5 1.973-16.118 19.983zm-1.087 0.1L235.91 163.6l13.126-13.025 8.283 21.709zm-48.106 3.674l9.207-26.559 15.628 14.262-24.835 12.297zm-24.7 26.336l6.742-27.6 16 2.663-22.742 24.937zm-10.006 23.551l-8.646-13.57 16.707-7.13-8.061 20.7zm-0.462 1.234l-7.39 23.592-0.993-36.75 8.383 13.158zm-8.509 27.287l-6.027 23.558-9.462-23.536 15.489-0.022zm-15.728-1.028l0.5-23.129 14.936 23.107-15.436 0.022zm23.825 21.71l-5.99 21.959-7.32-17.092 13.31-4.867zm24.036 42.712l-18.187 2.576-10.4-20.291 28.587 17.715zm0.988 0.921l0.118 12.885-18-10.351 17.882-2.534zm30.333 9.623l-9.207 19.274-19.183-14.77 28.39-4.504zm1.073 0.195l24.328 22.46-33.612-3.023 9.284-19.437zm1.193-0.33l26.648 0.3-2.431 22.055-24.217-22.355zM284.8 317.6l1.017 24.917-26.117-14.495 25.1-10.422zm1.058 0.091l26.356 13.083-25.34 11.846-1.016-24.929zm40.876-25.536l13.084 20.462-25.412 16.883 12.328-37.345zm0.911-0.529l25.192 3.7-12.265 16.514-12.927-20.214zm0.469-0.992l26.95-16.134-1.753 19.835-25.197-3.701zm35.589-38.444l4.758 16.647-11.94 3.858 7.182-20.505zm-6.331-28.31l13.647 17.189-7.011 8.271-6.636-25.46zm-12.77-31.307l17.724 12.982-6.095 14.68-11.629-27.662zm-18.269-8.926l2.857-12.186 12.765 18.43-15.622-6.244zM303.74 171.3l-3.076-18.619 26.658 17.079-23.582 1.54zm-1.17-0.622l-25.407-18.41 22.342-0.139 3.065 18.549zm-51.684-21.44l16.587-10.18 7.116 12.09-23.703-1.91zm-15.927 13.824l-15.359-14.01 28.408 1.064-13.049 12.946zm-27.013 13.343L192 173.756l24.995-23.44-9.049 26.089zM183.2 203.24l-16.318-13.25 23.158-14.744-6.84 27.994zm-0.693 0.791l-16.861 7.195 0.822-20.218 16.039 13.023zm-16.868 47.948l-15.149-23.436 14.1-15.2 1.049 38.636zm-6.563 27.685L156.2 294l-5.674-35.6 8.55 21.264zm0.73 1.714l7.1 16.575-10.138-1.422 3.038-15.153zm18.42 38.812l-10.7-2.059 0.681-17.5 10.019 19.559zm20.217 12.4l-7.6 7.311-10.21-17.552 17.81 10.241zm0.907 0.586l18.258 14.056-25.846-6.759 7.588-7.297zm59.579-4.376L285 343.257l-28.5 7.658 2.429-22.115zm53.9 2.846l-1.427 18.183L287.9 343.3l24.929-11.654zm26.153-17.213l-14.473 25.347-10.221-8.935 24.694-16.412zm14.284-17.919l0.08 13.273L341.77 312l11.496-15.486zm2.9-22.6l11.774-3.8-13.433 22.576 1.659-18.776zm8.168-23.335l6.685-7.886-2.181 23.642-4.504-15.756zm-7.5-29.061l6-14.456 7.777 31.809-13.777-17.353zm-12.768-30.636l4.216-7.364L361 203.274l-16.934-12.392zm-0.732-0.839l-12.472-18.007 16.689 10.642-4.217 7.365zm-41.849-38.069l12.626-1.344 12.773 17.616-25.399-16.272zm-25.638-0.74l-6.947-11.82 28.43 11.682-21.483 0.138zm-26.428-2.324l-5.6-9.809 21.937-0.218-16.337 10.027zm-1.114 0.171l-27.631-1.035 22.013-8.8 5.618 9.835zm-55.843 22.793l9.894-21.425 14.349-1.309-24.243 22.734zm-1.778 1.339l-9.044-8.688 19.088-13.061-10.044 21.749zm-0.678 0.807l-22.487 14.318 13.409-23.039 9.078 8.721zm-25.421 37.16l-11.286-6.068L165.4 191.4l-0.815 19.78zm-0.356 1l-13.707 14.775 2.38-20.866 11.327 6.091zm-15.479 41.432l-5.795 4.743 6.241-25.147-0.446 20.404zm0.145 1.24l5.916 37.118-12.123-32.039 6.207-5.079zm18.317 44.2l-0.679 17.443-9.472-18.866 10.151 1.423zm11.639 22.324l9.621 16.54-19.8-18.5 10.179 1.96zm40.585 27.412l-0.419 9.581-25.251-16.289 25.67 6.708zm1.036 0.41l13.1 6.127-13.516 3.307 0.416-9.434zm34.9 3.049l0.407 13.438-19.045-9.966 18.638-3.472zm30.1-8.037l-7.725 18.191-20.43-10.626 28.155-7.565zm1.21-0.157l23.492 6.519-31.2 11.639 7.708-18.158zm27.182-12.187l9.954 8.7-11.318 8.792 1.364-17.492zm27.01-18.635l11.474-2.192-25.148 26.139 13.674-23.947zm13.513-5.072l-0.079-12.937 10.585-6.468-10.506 19.405zm0.93-14.785l12.849-21.595-2.356 15.191-10.493 6.404zm16.385-46.635l1.5 15.877-3.395 4.691 1.895-20.568zm-7.8-39.777l2.936 2.753 2.937 21.269-5.873-24.022zm-14.882-24.259l2.763-1.386 7.987 18.1-10.75-16.714zm-19.32-12.667l4.849-6.943 11.869 17.6-16.718-10.657zm-0.753-0.759L316.3 151.842l17.5 10.482-4.853 6.953zm-28.472-18.255l-0.078-7.58 12.177 6.292-12.099 1.288zm-1.055-0.2l-27.832-11.436 27.752 3.654 0.08 7.782zm-55.057-12.782l4.431-3.8 14.693 3.612-19.124 0.188zm-24.2 9.077l8.616-9.282 11.914 1.071-20.53 8.211zm-2.226 0.852l-13.047 1.19 21.422-10.212-8.375 9.022zm-35.88 15l1.443-3.228 11.974-5.952-13.417 9.18zm-15.717 25.313l-0.87-8.446L178.5 167.4l-12.16 20.882zm-0.905 1.486l-10.8 12.246 9.951-20.488 0.849 8.242zm-16.09 38.276l-6.9 1.283 9.107-20.681-2.207 19.398zm-0.229 1.111l-6.6 26.576-0.419-25.271 7.019-1.305zm5.832 66.161l-7.839-6.451-3.754-24.187 11.593 30.638zm10.991 22.355l-5.007-1.649-3.349-15 8.356 16.649zm21.4 20.635l-16.634-9.057-2.67-8.977 19.304 18.034zm3.034 2.848l7.2 9.183-22.015-17.248 14.815 8.065zm2.694 1.731l22.9 14.776-14.985-4.685-7.915-10.091zm42.013 13.161l17.8 9.313-30.938-6.1 13.138-3.213zm21.356-3.54l19.923 10.363-19.515 3.095-0.408-13.458zm52.882-0.483L301.231 359l-18.2 2.826 26.287-9.803zm14.949-10.46l0.673 4.354-10.455 3.234 9.782-7.588zm27.127-28l-10.754 19.105-13.682 6.294 24.436-25.399zm3-3.184l7.2-13.3-7.7 18.246 0.5-4.946zm15.219-40.992l2.719-3.756L367.96 280l1.653-10.613zm2.616-28.347V241l-0.039-0.279 0.271-3.561 0.276 9.22-0.508-5.34zm-0.723-5.243l-2.72-19.705 3.368 11.18-0.648 8.525zm-8.092-30.73l-4.965-11.252 6.948 13.111-1.983-1.859zm-14.97-23.239l-9.915-14.705 12.649 13.334-2.734 1.371zm-33.122-31.798l0.663-0.479 7.622 5.442-8.285-4.963zm-1-0.574l-5.154-2.663 5.727 2.248-0.573 0.415zm-43.506-11.236l9.658-1.985 14.533 5.17-24.191-3.185zm-3.151-0.425l-13.151-3.233 22.051 1.4-8.9 1.833zm-24.913 0.242l-10.258-0.922 14.352-2.591-4.094 3.513zm-36.2 9.165l5.869-4.4 9.461-2.909-15.33 7.309zm-4.817 2.3l-5.091 2.53 7.827-4.58-2.736 2.05zm-21.358 14.644l-6.039 5.767 6.905-7.7-0.866 1.933zm-28.285 40.694l-2.685 0.994 10.431-16.944-7.746 15.95zm-3.5 2.416l2.9-1.073-7.327 16.638 4.427-15.565zm-7.215 43.173l0.154 9.261-0.531 1.681 0.377-10.942zm0.5 11.627l2.642 17.022-3.642-13.888 1-3.134zm13.782 35.211l3.393 15.192-10.829-21.312 7.436 6.12zm10.886 21.71l2.355 7.92-7.013-9.453 4.658 1.533zm52.607 40.782l0.983 1.566-10.294-4.478 9.311 2.912zm2.643 2.233l-1.208-1.926 22.392 4.413-21.184-2.487zm54.851 1.893l-2.355 2.665-12.292-0.342 14.647-2.323zm1.631-0.258l14.653-2.276-16.831 4.741 2.178-2.465zm33.857-12.652l8.593-2.658-15.153 8.318 6.56-5.66zm13.765-5.7l-0.675-4.361 12.557-5.776-11.882 10.137zm27.2-32.6l-0.588 5.861-8.258 9.853 8.846-15.714zm13.6-24.99l2.122-1.022-9.712 19.014 7.59-17.992zm2.826-2.527l-2.382 1.147 4.788-15.746-2.406 14.599z" fill="url(#b)"/>
  <path d="M478.979 166.383c-10.457-25.127-31.636-52.255-48.267-60.828 13.536 26.508 21.369 53.1 24.363 72.944 0-0.058 0.011 0.049 0.036 0.226 0.012 0.086 0.027 0.174 0.04 0.26 22.7 61.476 10.334 123.992-7.487 162.193-27.572 59.1-94.325 119.685-198.808 116.73-112.89-3.193-212.335-86.866-230.9-196.457-3.382-17.282 0-26.057 1.7-40.089-2.074 10.817-2.863 13.942-3.9 33.161 0 0.411-0.025 0.816-0.025 1.227 0 132.725 107.721 240.319 240.6 240.319 117.111 0.044 217.24-84.25 237.16-199.654 0.408-3.076 0.734-6.169 1.094-9.271 4.783-41.215-0.531-84.536-15.606-120.761z" fill="url(#c)"/>
  <path d="M478.979 166.383c-10.457-25.127-31.636-52.255-48.267-60.828 13.536 26.508 21.369 53.1 24.363 72.944 0-0.058 0.011 0.049 0.036 0.226 0.012 0.086 0.027 0.174 0.04 0.26 22.7 61.476 10.334 123.992-7.487 162.193-27.572 59.1-94.325 119.685-198.808 116.73-112.89-3.193-212.335-86.866-230.9-196.457-3.382-17.282 0-26.057 1.7-40.089-2.074 10.817-2.863 13.942-3.9 33.161 0 0.411-0.025 0.816-0.025 1.227 0 132.725 107.721 240.319 240.6 240.319 117.111 0.044 217.24-84.25 237.16-199.654 0.408-3.076 0.734-6.169 1.094-9.271 4.783-41.215-0.531-84.536-15.606-120.761z" fill="url(#d)"/>
  <path d="M17.957 261.451c18.564 109.591 118.009 193.264 230.9 196.457 104.483 2.955 171.236-57.626 198.808-116.73 17.821-38.2 30.188-100.717 7.487-162.193l-0.008-0.026-0.032-0.234c-0.025-0.177-0.041-0.284-0.036-0.226 0 0.04 0.015 0.136 0.047 0.4 8.533 55.667-19.813 109.6-64.126 146.06a25.453 25.453 0 0 1-0.133 0.313c-86.345 70.232-168.97 42.374-185.7 30.971a137.238 137.238 0 0 1-3.5-1.744c-50.34-24.032-71.137-69.846-66.678-109.137-42.506 0-57-35.813-57-35.813s38.163-27.183 88.461-3.541c46.583 21.9 90.332 3.543 90.337 3.541-0.09-1.952-41.965-18.592-58.291-34.66-8.723-8.585-12.865-12.725-16.533-15.83a71.492 71.492 0 0 0-6.232-4.7 276.433 276.433 0 0 0-4.987-3.3c-17.548-11.394-52.448-10.766-53.6-10.736h-0.112c-9.538-12.068-8.865-51.879-8.321-60.191-0.115-0.516-7.116 3.63-8.033 4.255a175.206 175.206 0 0 0-23.514 20.122 210.506 210.506 0 0 0-22.469 26.916c0 0.012-0.007 0.026-0.011 0.038 0-0.013 0.007-0.026 0.011-0.039A202.752 202.752 0 0 0 22.4 204.245c-0.113 0.522-8.658 37.847-4.443 57.206z" fill="url(#e)"/>
  <path d="M341.214 166.617a130.72 130.72 0 0 1 22.336 29.115c1.325 0.994 2.561 1.986 3.612 2.953C421.707 248.892 393.129 319.9 391 324.959c44.313-36.464 72.659-90.393 64.126-146.06-27.207-67.74-73.339-95.056-111.015-154.531-1.905-3.007-3.809-6.022-5.667-9.2a73.166 73.166 0 0 1-2.649-4.973 43.755 43.755 0 0 1-3.595-9.507 0.627 0.627 0 0 0-0.546-0.645 0.822 0.822 0 0 0-0.452 0c-0.034 0.012-0.084 0.051-0.12 0.065-0.053 0.021-0.12 0.069-0.176 0.1-9.306 4.428-64.484 91.705 10.308 166.409z" fill="url(#f)"/>
  <path d="M248.657 133.663l31.855 2.028 19.347 6.883 16.124 6.33 18.57 13.259 17.493 18.44 6.077 11.469c0.816 0.5 2.5 1.586 3.932 2.558 0.525 0.368 1 0.735 1.5 1.1a130.748 130.748 0 0 0-22.336-29.116C266.422 91.913 321.6 4.636 330.908 0.2c0.027-0.036 0.083-0.117 0.1-0.136-60.44 35.361-80.944 100.773-82.828 133.5l-0.009 0.183 0.486-0.084z" fill="url(#g)"/>
  <path d="M170.74 151.064a247.564 247.564 0 0 1 4.987 3.3 111.241 111.241 0 0 1-0.675-58.74c-24.716 11.243-43.941 29.014-57.916 44.707 1.156-0.031 36.056-0.661 53.604 10.733z" fill="url(#h)"/>
  <path d="M148.324 277.486s11.106-41.34 79.525-41.34c7.4 0 28.541-20.617 28.935-26.6 0 0-43.754 18.355-90.337-3.541-50.3-23.642-88.461 3.541-88.461 3.541s14.494 35.813 57 35.813c-4.459 39.291 16.338 85.1 66.678 109.137 1.125 0.538 2.183 1.124 3.338 1.639-29.385-15.166-53.647-43.835-56.678-78.649z" fill="url(#i)"/>
  <path d="M367.162 198.685c-1.051-0.967-2.287-1.959-3.612-2.953-0.49-0.367-0.97-0.734-1.5-1.1-12.847-9.015-35.851-17.919-58.014-14.069 86.541 43.219 63.308 192.05-56.611 186.431a106.977 106.977 0 0 1-31.307-6.032 133.003 133.003 0 0 1-7.067-2.886c-1.358-0.619-2.714-1.244-4.055-1.936 0.048 0.034 0.114 0.071 0.163 0.105 16.729 11.4 99.354 39.261 185.7-30.971 0 0 0.054-0.124 0.133-0.313 2.137-5.061 30.715-76.069-23.83-126.276z" fill="url(#j)"/>
  <path d="M478.959 166.373c-10.457-25.127-31.637-52.255-48.268-60.828 13.536 26.508 21.37 53.1 24.364 72.944 0 0.039 0.015 0.136 0.047 0.4-27.207-67.74-73.34-95.056-111.015-154.531-1.9-3.008-3.809-6.022-5.668-9.2a73.115 73.115 0 0 1-2.648-4.972 43.755 43.755 0 0 1-3.589-9.5 0.627 0.627 0 0 0-0.547-0.645 0.818 0.818 0 0 0-0.451 0c-0.034 0.012-0.084 0.051-0.12 0.065-0.053 0.021-0.12 0.069-0.176 0.1 0.026-0.036 0.083-0.117 0.1-0.136-60.44 35.361-80.933 100.966-82.817 133.693l0.488-0.088 31.855 2.028 17.928 6.378 17.543 6.835 18.57 13.259 17.472 18.43s6.014 11.289 6.1 11.479c-13.944-8.294-34.208-14.977-54.1-11.521 86.541 43.219 63.308 192.05-56.611 186.43a106.936 106.936 0 0 1-31.316-6.043 132.66 132.66 0 0 1-7.067-2.886c-1.358-0.619-2.714-1.244-4.055-1.936 0.048 0.033 0.114 0.071 0.163 0.105a137.238 137.238 0 0 1-3.5-1.744c1.125 0.538 2.183 1.124 3.338 1.639-29.379-15.169-53.644-43.838-56.679-78.652 0 0 11.106-41.34 79.524-41.34 7.4 0 28.542-20.617 28.935-26.6-0.09-1.952-41.966-18.592-58.291-34.66-8.723-8.586-12.865-12.725-16.533-15.83a71.492 71.492 0 0 0-6.232-4.7 111.241 111.241 0 0 1-0.675-58.74c-24.716 11.243-43.941 29.014-57.917 44.707H117c-9.538-12.069-8.865-51.879-8.322-60.191-0.114-0.516-7.115 3.63-8.033 4.255a175.272 175.272 0 0 0-23.513 20.122 210.59 210.59 0 0 0-22.47 26.916 0.259 0.259 0 0 1 0-0.001 202.769 202.769 0 0 0-32.284 72.814c-0.115 0.521-0.212 1.061-0.325 1.587-0.452 2.116-2.488 12.854-2.772 15.158-0.022 0.176 0.021-0.177 0 0a279.2 279.2 0 0 0-3.548 33.533c0 0.411-0.026 0.816-0.026 1.227 0 132.725 107.722 240.319 240.6 240.319 119 0 217.811-86.3 237.156-199.654 0.408-3.076 0.734-6.169 1.094-9.272 4.79-41.208-0.523-84.526-15.598-120.753zm-23.868 12.342c0.012 0.085 0.027 0.174 0.04 0.26l-0.009-0.027c-0.011-0.082-0.022-0.156-0.031-0.233z" fill="url(#k)"/>
  <path d="M256.78 209.552s-1.02 0.427-2.9 1.071c-4.7 7.944-21.409 23.107-27.8 23.079-68.418-0.3-79.7 40.592-79.7 40.592a87.364 87.364 0 0 0 13.4 39.269 88.052 88.052 0 0 1-11.456-36.074s11.106-41.34 79.525-41.34c7.4 0 28.541-20.617 28.935-26.6l-0.004 0.003z" fill="url(#l)"/>
  <path d="M455.152 178.983l-0.009-0.024c-0.012-0.082-0.021-0.157-0.033-0.233a2 2 0 0 0-0.033-0.227 5.804 5.804 0 0 0 0.045 0.4 238.635 238.635 0 0 0-5.168-11.9c-0.612-1.314-1.269-2.543-1.9-3.827-1.2-2.464-2.4-4.935-3.657-7.294-0.775-1.456-1.59-2.837-2.383-4.254-1.163-2.077-2.316-4.166-3.515-6.167-0.879-1.463-1.787-2.864-2.68-4.29-1.169-1.863-2.334-3.731-3.533-5.535-0.948-1.429-1.92-2.813-2.886-4.209-1.193-1.723-2.386-3.448-3.6-5.129-1.008-1.387-2.032-2.743-3.052-4.1a349.361 349.361 0 0 0-3.673-4.827 339.91 339.91 0 0 0-3.2-4.033 474.441 474.441 0 0 0-3.751-4.62 550.474 550.474 0 0 0-3.307-3.963c-0.6-0.715-1.2-1.448-1.8-2.159 0.26 0.309 0.511 0.63 0.769 0.941-20.846-24.594-43.47-47.26-63.674-79.161-1.908-3.006-3.812-6.022-5.668-9.2a72.301 72.301 0 0 1-2.649-4.972 49.1 49.1 0 0 1-3.31-8.435c-0.042-0.154-0.118-0.39-0.145-0.509a13.834 13.834 0 0 1-0.133-0.56 0.63 0.63 0 0 0-0.548-0.645 0.847 0.847 0 0 0-0.451 0c-0.034 0.012-0.085 0.052-0.122 0.067-0.037 0.015-0.118 0.067-0.175 0.094a7.406 7.406 0 0 0-1.46 1.072 14.766 14.766 0 0 0-0.348 0.312A25.185 25.185 0 0 0 327.2 3.6c-0.024 0.027-0.043 0.042-0.067 0.07 0.006-0.006 0.012-0.006 0.018-0.012-14.415 16.946-51.226 90.6 8.1 156.656-55.543-65.354-20.542-135.983-5.33-154.486a53.605 53.605 0 0 0 2.964 7.27 74.556 74.556 0 0 0 2.649 4.972c1.856 3.182 3.761 6.2 5.668 9.2 37.675 59.475 83.806 86.791 111.013 154.531a9.121 9.121 0 0 1-0.045-0.4 1.556 1.556 0 0 1 0.033 0.227c0.012 0.075 0.021 0.151 0.033 0.233l0.01 0.024c22.7 61.479 10.333 123.993-7.488 162.194a199.392 199.392 0 0 1-38.217 54.806 199.847 199.847 0 0 0 41.124-57.712c17.821-38.197 30.186-100.711 7.487-162.19z" fill="url(#m)"/>
  <path d="M330.908 0.2c0.027-0.036 0.083-0.117 0.1-0.136-54.445 31.853-76.48 88.088-81.693 122.854 5.988-32.122 26.574-81.185 72.71-112.16 3.797-5.997 7.143-9.725 8.883-10.558z" fill="url(#n)"/>
  <path d="M390.863 325.272s0.054-0.124 0.133-0.313c2.133-5.056 30.711-76.067-23.834-126.274-1.051-0.967-2.287-1.959-3.612-2.953-0.49-0.367-0.97-0.734-1.5-1.1-12.415-8.712-34.316-17.318-55.776-14.412l-0.052 0.006a66.895 66.895 0 0 0-2.186 0.337c85.565 42.732 63.813 188.7-52.595 186.555 0.316 0.015 0.633 0.04 0.948 0.053 118.011 4.617 141.264-140.111 59.276-185.485 17.768-0.174 34.954 6.315 45.567 13.16 0.539 0.347 1.034 0.694 1.537 1.043 1.363 0.941 2.637 1.883 3.725 2.808 56.468 48.034 30.691 120.109 28.758 125.245l-0.12 0.318" fill="url(#o)"/>
  <path d="M167.09 208.409c39.378 17.061 75.926 6.219 87 2.141-10.2 3.517-47.882 14.145-87.639-4.542-45.214-21.252-80.616-1.438-87.312 2.785l-0.018 0.011-0.321 0.2-0.026 0.018c-0.1 0.062-0.184 0.119-0.263 0.171l-0.016 0.01-0.2 0.133-0.026 0.017-0.125 0.084-0.034 0.024-0.087 0.06-0.032 0.023 0.112 0.261 0.017 0.04c0.037 0.085 0.085 0.19 0.14 0.312l0.027 0.059a50.858 50.858 0 0 0 0.208 0.446l0.019 0.038a48.42 48.42 0 0 0 1.58 3.021v0.007c5.337 9.445 21.431 31.629 54.893 31.629-4.325 38.113 15.116 82.361 62.232 106.915-45.032-25.952-63.953-73.046-58.693-110.5-34.765-0.923-50.313-21.761-54.758-30.6 12.732-6.91 44.822-19.443 83.322-2.763z" fill="url(#p)"/>
  <path d="M175.69 154.227a129.117 129.117 0 0 0-1.176-0.685 160.832 160.832 0 0 1 1.213 0.819c-0.013-0.045-0.027-0.089-0.037-0.134zm-0.247-0.882a111.383 111.383 0 0 1-0.391-57.724c-23.43 10.658-41.917 27.18-55.684 42.239 13.11-12.771 30.093-26.477 50.778-35.867-1.28 9.825-2.383 29.93 5.297 51.352z" fill="url(#q)"/>
  <path d="M23.758 286.64c-0.067-0.229-0.126-0.46-0.191-0.689a220.843 220.843 0 0 1-5.61-24.5c-1.836-8.432-1.25-20.27 0-30.992-0.929 5.566-1.511 11.223-2.2 24.064 0 0.411-0.025 0.816-0.025 1.227 0 105.031 67.465 194.31 161.467 227C95.716 451.54 35.35 376.849 23.758 286.64z" fill="url(#r)"/>
  <path d="M21.832 262.42c-4.214-19.36 4.331-56.685 4.446-57.206A202.752 202.752 0 0 1 58.562 132.4c0 0.013-0.007 0.026-0.011 0.038 0-0.012 0.007-0.025 0.011-0.037a210.59 210.59 0 0 1 22.47-26.916 175.272 175.272 0 0 1 23.513-20.122 27.696 27.696 0 0 1 1.015-0.634c-0.083 18.282 0.954 49.13 9.423 59.245h0.111c1.16-0.06 36.177-1.6 54.092 9.323a272.798 272.798 0 0 1 5.092 3.165 71.646 71.646 0 0 1 6.378 4.533c3.764 3.008 8.03 7.037 17.012 15.39 13 12.093 41.356 24.125 53.6 29.857-11.929-6.011-40.077-18.851-52.774-31.348-8.723-8.585-12.865-12.725-16.533-15.83a71.492 71.492 0 0 0-6.232-4.7 276.433 276.433 0 0 0-4.987-3.3c-17.548-11.394-52.448-10.766-53.6-10.736h-0.112c-8.718-11.03-8.905-45.221-8.458-57.37 0.018-0.469 0.036-0.9 0.054-1.3l0.021-0.43a103.932 103.932 0 0 1 0.018-0.355c0.015-0.263 0.029-0.516 0.044-0.735-0.007-0.031-0.042-0.042-0.095-0.042-0.018 0-0.048 0.009-0.071 0.012a1.022 1.022 0 0 0-0.151 0.034c-0.039 0.012-0.087 0.03-0.132 0.046a5.777 5.777 0 0 0-0.2 0.076c-0.059 0.024-0.124 0.053-0.19 0.082a8.749 8.749 0 0 0-0.234 0.106c-0.082 0.039-0.16 0.074-0.244 0.115l-0.251 0.124c-0.1 0.049-0.2 0.1-0.3 0.152l-0.245 0.127-0.359 0.189-0.2 0.109c-2.121 1.141-4.813 2.753-5.358 3.125a175.206 175.206 0 0 0-23.514 20.122 210.506 210.506 0 0 0-22.469 26.916c0 0.012-0.007 0.026-0.011 0.038 0-0.013 0.007-0.026 0.011-0.039A202.752 202.752 0 0 0 22.4 204.245c-0.116 0.522-8.661 37.847-4.446 57.206 15.8 93.263 90.176 167.742 181.563 189.838-89.605-23.24-162.11-96.928-177.685-188.869z" fill="url(#s)"/>
  <path d="M478.979 166.383c-9.226-22.17-26.8-45.889-42.231-57.055l-0.425-0.3a55.502 55.502 0 0 0-1.968-1.339 48.298 48.298 0 0 0-1.341-0.834c-0.172-0.1-0.345-0.212-0.517-0.312a42.518 42.518 0 0 0-1.786-0.986 270.666 270.666 0 0 1 1.9 3.816c0.385 0.792 0.77 1.583 1.148 2.374 11.668 24.418 18.557 48.455 21.317 66.754 0 0.04 0.015 0.136 0.047 0.4 8.533 55.667-19.813 109.6-64.126 146.06a25.453 25.453 0 0 1-0.133 0.313c-55.08 44.8-108.642 49.685-144.555 44.39 35.786 6.685 92.233 3.866 150.369-43.421l0.133-0.313c44.312-36.464 72.659-90.393 64.126-146.06a12.553 12.553 0 0 1-0.047-0.4c-2.451-16.244-8.159-37.01-17.57-58.548a159.025 159.025 0 0 1 26.316 37.491c17.047 34.765 24.739 77.051 22.235 117.833-0.188 3.07-0.343 6.128-0.58 9.175-13.069 112.508-106.968 202.869-225.784 209.53A245.579 245.579 0 0 1 218 493.02c130.16 20.911 252.944-66.713 275.488-196.6 0.408-3.076 0.734-6.169 1.094-9.271 4.786-41.22-0.528-84.541-15.603-120.766zm-23.828 12.6l-0.008-0.026-0.032-0.234c0.012 0.088 0.027 0.177 0.04 0.262v-0.002z" fill="url(#t)"/>
</svg>
