<?xml version="1.0" encoding="utf-8"?>
<svg xmlns="http://www.w3.org/2000/svg" xmlns:xlink="http://www.w3.org/1999/xlink" viewBox="0 0 955.45 986.16">
  <defs>
    <linearGradient id="linear-gradient" x1="-14371.64" y1="9293.53" x2="-14108.4" y2="9293.53" gradientTransform="matrix(0.76, 0.03, 0.05, -1.12, 11228.23, 11186.79)" gradientUnits="userSpaceOnUse">
      <stop offset="0" stop-color="#0083ff" />
      <stop offset="0.18" stop-color="#0096f6" />
      <stop offset="0.51" stop-color="#00b3e6" />
      <stop offset="0.79" stop-color="#00c6dd" />
      <stop offset="1" stop-color="#00ccda" />
    </linearGradient>
    <linearGradient id="linear-gradient-2" x1="-541.3" y1="256.54" x2="-732.73" y2="882.77" gradientTransform="matrix(1, 0, 0, -1, 1081.94, 986.01)" gradientUnits="userSpaceOnUse">
      <stop offset="0" stop-color="#000f40" stop-opacity="0.6" />
      <stop offset="0.61" stop-color="#000f40" stop-opacity="0.18" />
      <stop offset="1" stop-color="#000f40" stop-opacity="0" />
    </linearGradient>
    <linearGradient id="linear-gradient-3" x1="540.64" y1="256.54" x2="349.2" y2="882.77" gradientTransform="matrix(1, 0, 0, -1, 0, 986.01)" gradientUnits="userSpaceOnUse">
      <stop offset="0" stop-color="#000f43" stop-opacity="0.4" />
      <stop offset="0.48" stop-color="#001962" stop-opacity="0.17" />
      <stop offset="1" stop-color="#002079" stop-opacity="0" />
    </linearGradient>
    <linearGradient id="linear-gradient-4" x1="-8570.46" y1="7439.08" x2="-8685.71" y2="7447.98" gradientTransform="matrix(1.22, 0.12, 0.12, -1.22, 10478.03, 10900.02)" gradientUnits="userSpaceOnUse">
      <stop offset="0" stop-color="#002275" />
      <stop offset="1" stop-color="#005fe7" />
    </linearGradient>
    <linearGradient id="linear-gradient-5" x1="-8653.32" y1="7586.86" x2="-8545.37" y2="7698.98" gradientTransform="matrix(1.22, 0.12, 0.12, -1.22, 10478.03, 10900.02)" gradientUnits="userSpaceOnUse">
      <stop offset="0.05" stop-color="#005fe7" />
      <stop offset="0.19" stop-color="#005ce1" />
      <stop offset="0.38" stop-color="#0052cf" />
      <stop offset="0.6" stop-color="#0043b2" />
      <stop offset="0.84" stop-color="#002d8a" />
      <stop offset="0.95" stop-color="#002275" />
    </linearGradient>
    <linearGradient id="linear-gradient-6" x1="-8856.78" y1="7335.52" x2="-8625.9" y2="7334.98" gradientTransform="matrix(1.22, 0.12, 0.12, -1.22, 10478.03, 10900.02)" gradientUnits="userSpaceOnUse">
      <stop offset="0" stop-color="#002079" />
      <stop offset="0.99" stop-color="#000f40" />
    </linearGradient>
    <radialGradient id="radial-gradient" cx="584.1" cy="600.57" fx="717.5140400954007" fy="478.32765335281425" r="751.57" gradientTransform="matrix(1, 0, 0, -1, 0, 986.01)" gradientUnits="userSpaceOnUse">
      <stop offset="0.16" stop-color="#58c1ff" />
      <stop offset="0.24" stop-color="#4cb8ff" />
      <stop offset="0.39" stop-color="#2ea0ff" />
      <stop offset="0.54" stop-color="#0a84ff" />
      <stop offset="0.76" stop-color="#0060df" />
      <stop offset="0.8" stop-color="#0067de" />
      <stop offset="0.85" stop-color="#007bdd" />
      <stop offset="0.91" stop-color="#009cda" />
      <stop offset="0.98" stop-color="#00c8d7" />
    </radialGradient>
    <linearGradient id="linear-gradient-7" x1="-7658.58" y1="9078.09" x2="-7729.61" y2="8279.7" gradientTransform="matrix(1.23, 0, 0, -1.22, 10201.91, 11050.28)" gradientUnits="userSpaceOnUse">
      <stop offset="0" stop-color="#00feff" />
      <stop offset="0.3" stop-color="#04c9ff" />
      <stop offset="0.61" stop-color="#0897ff" />
      <stop offset="0.77" stop-color="#0a84ff" />
      <stop offset="0.79" stop-color="#0a84ff" stop-opacity="0.93" />
      <stop offset="0.84" stop-color="#0a84ff" stop-opacity="0.76" />
      <stop offset="0.9" stop-color="#0a84ff" stop-opacity="0.49" />
      <stop offset="0.98" stop-color="#0a84ff" stop-opacity="0.11" />
      <stop offset="1" stop-color="#0a84ff" stop-opacity="0" />
    </linearGradient>
    <linearGradient id="linear-gradient-8" x1="-9129.99" y1="7770.74" x2="-8993.52" y2="7770.74" gradientTransform="matrix(1.22, 0.12, 0.12, -1.22, 10478.03, 10900.02)" gradientUnits="userSpaceOnUse">
      <stop offset="0" stop-color="#003eaa" />
      <stop offset="0.3" stop-color="#0054c5" stop-opacity="0.68" />
      <stop offset="0.78" stop-color="#0076ef" stop-opacity="0.19" />
      <stop offset="1" stop-color="#0083ff" stop-opacity="0" />
    </linearGradient>
    <linearGradient id="linear-gradient-9" x1="553.42" y1="650.09" x2="358.4" y2="653.09" gradientTransform="matrix(1, 0, 0, -1, 0, 986.01)" gradientUnits="userSpaceOnUse">
      <stop offset="0" stop-color="#00feff" stop-opacity="0.25" />
      <stop offset="0.54" stop-color="#2ddfff" stop-opacity="0.12" />
      <stop offset="1" stop-color="#58c1ff" stop-opacity="0" />
    </linearGradient>
    <linearGradient id="linear-gradient-10" x1="208.63" y1="2142.48" x2="90.81" y2="2394.32" gradientTransform="matrix(0.99, 0.1, 0.1, -0.99, -255.6, 2416.49)" gradientUnits="userSpaceOnUse">
      <stop offset="0.19" stop-color="#002275" stop-opacity="0.7" />
      <stop offset="0.63" stop-color="#009dc2" stop-opacity="0.36" />
      <stop offset="0.94" stop-color="#00feff" stop-opacity="0.1" />
    </linearGradient>
    <linearGradient id="linear-gradient-11" x1="-43.75" y1="388.32" x2="50.36" y2="281.43" gradientTransform="matrix(0.99, 0.1, 0.1, -0.99, 223.54, 856.07)" gradientUnits="userSpaceOnUse">
      <stop offset="0" stop-color="#002275" stop-opacity="0.8" />
      <stop offset="0.07" stop-color="#002479" stop-opacity="0.74" />
      <stop offset="0.95" stop-color="#003eaa" stop-opacity="0" />
    </linearGradient>
    <linearGradient id="linear-gradient-12" x1="136.86" y1="206.19" x2="136.9" y2="259.62" gradientTransform="matrix(0.99, 0.1, 0.1, -0.99, 223.54, 856.07)" gradientUnits="userSpaceOnUse">
      <stop offset="0" stop-color="#002275" stop-opacity="0.6" />
      <stop offset="0.24" stop-color="#002275" stop-opacity="0.34" />
      <stop offset="0.49" stop-color="#002275" stop-opacity="0.15" />
      <stop offset="0.72" stop-color="#002275" stop-opacity="0.04" />
      <stop offset="0.93" stop-color="#002275" stop-opacity="0" />
    </linearGradient>
    <linearGradient id="linear-gradient-13" x1="569.33" y1="1064.11" x2="877.68" y2="374.6" gradientTransform="matrix(1, 0, 0, -1, 0, 986.01)" gradientUnits="userSpaceOnUse">
      <stop offset="0" stop-color="#00feff" />
      <stop offset="0.28" stop-color="#03dfff" />
      <stop offset="0.9" stop-color="#0992ff" />
      <stop offset="1" stop-color="#0a84ff" />
    </linearGradient>
    <linearGradient id="linear-gradient-14" x1="680.88" y1="556.54" x2="536.1" y2="167.79" gradientTransform="matrix(1, 0, 0, -1, 0, 986.01)" gradientUnits="userSpaceOnUse">
      <stop offset="0" stop-color="#0060df" />
      <stop offset="0.09" stop-color="#0067e5" stop-opacity="0.81" />
      <stop offset="0.21" stop-color="#006eec" stop-opacity="0.59" />
      <stop offset="0.33" stop-color="#0075f2" stop-opacity="0.41" />
      <stop offset="0.46" stop-color="#007af7" stop-opacity="0.26" />
      <stop offset="0.58" stop-color="#007efa" stop-opacity="0.15" />
      <stop offset="0.71" stop-color="#0081fd" stop-opacity="0.06" />
      <stop offset="0.85" stop-color="#0082fe" stop-opacity="0.02" />
      <stop offset="1" stop-color="#0083ff" stop-opacity="0" />
    </linearGradient>
    <linearGradient id="linear-gradient-15" x1="640" y1="1020.28" x2="747.99" y2="109.82" gradientTransform="matrix(1, 0, 0, -1, 0, 986.01)" gradientUnits="userSpaceOnUse">
      <stop offset="0" stop-color="#75feff" />
      <stop offset="0.28" stop-color="#5adfff" />
      <stop offset="0.9" stop-color="#1692ff" />
      <stop offset="1" stop-color="#0a84ff" />
    </linearGradient>
    <linearGradient id="linear-gradient-16" x1="735.59" y1="578.41" x2="653.1" y2="230.43" gradientTransform="matrix(1, 0, 0, -1, 0, 986.01)" gradientUnits="userSpaceOnUse">
      <stop offset="0" stop-color="#9ee7ff" />
      <stop offset="0.14" stop-color="#8cdbff" stop-opacity="0.88" />
      <stop offset="0.46" stop-color="#5ebdff" stop-opacity="0.57" />
      <stop offset="0.92" stop-color="#168cff" stop-opacity="0.08" />
      <stop offset="1" stop-color="#0a84ff" stop-opacity="0" />
    </linearGradient>
    <linearGradient id="linear-gradient-17" x1="649" y1="1002.59" x2="724.57" y2="429.48" gradientTransform="matrix(1, 0, 0, -1, 0, 986.01)" gradientUnits="userSpaceOnUse">
      <stop offset="0" stop-color="#00feff" />
      <stop offset="0.14" stop-color="#0bf7ff" stop-opacity="0.88" />
      <stop offset="0.46" stop-color="#26e4ff" stop-opacity="0.57" />
      <stop offset="0.92" stop-color="#51c6ff" stop-opacity="0.08" />
      <stop offset="1" stop-color="#58c1ff" stop-opacity="0" />
    </linearGradient>
    <linearGradient id="linear-gradient-18" x1="662.8" y1="968.07" x2="1060.94" y2="345.6" gradientTransform="matrix(1, 0, 0, -1, 0, 986.01)" gradientUnits="userSpaceOnUse">
      <stop offset="0" stop-color="#00feff" />
      <stop offset="0.14" stop-color="#01efff" stop-opacity="0.88" />
      <stop offset="0.46" stop-color="#04caff" stop-opacity="0.57" />
      <stop offset="0.92" stop-color="#098eff" stop-opacity="0.08" />
      <stop offset="1" stop-color="#0a84ff" stop-opacity="0" />
    </linearGradient>
    <linearGradient id="linear-gradient-19" x1="754.44" y1="521.58" x2="313.86" y2="178" xlink:href="#linear-gradient-16" />
    <linearGradient id="linear-gradient-20" x1="358.66" y1="754.08" x2="43.38" y2="513.58" xlink:href="#linear-gradient-18" />
    <linearGradient id="linear-gradient-21" x1="145.65" y1="859.21" x2="130.45" y2="726.91" xlink:href="#linear-gradient-18" />
    <linearGradient id="linear-gradient-22" x1="292.53" y1="562.84" x2="195.52" y2="368.82" xlink:href="#linear-gradient-18" />
  </defs>
  <title>firefox-logo-developer-edition</title>
  <g id="Layer_2" data-name="Layer 2">
    <g id="Layer_1-2" data-name="Layer 1">
      <g id="Layer_2-2" data-name="Layer 2">
        <g id="Fox_Lines_-_Outlined" data-name="Fox Lines - Outlined">
          <path d="M80,726.72c51.48,39.42,209.8,68.08,396.9,68.08s345.08-28.62,397-67.94" style="fill:none;stroke:#f9f9fa;stroke-linecap:round;stroke-miterlimit:10;stroke-width:6px" />
          <path d="M770.28,91.82c-23.95,27.88-35.1,90.64-10.82,154.26s61.5,49.8,84.7,114.67c30.62,85.6,16.37,200.59,16.37,200.59s36.82,106.6,62.47-6.64C979.79,342,770.28,144.2,770.28,91.82Z" style="fill:url(#linear-gradient)" />
          <path d="M810.67,803.89a245.54,245.54,0,0,1-30.12,18.18,702.48,702.48,0,0,0,38.3-63C828.31,748.6,837,738.42,844,727.42c3.44-5.41,7.31-12.08,11.42-19.82,24.92-44.9,52.4-117.56,53.18-192.2v-5.69A257.57,257.57,0,0,0,902.93,454c.2,1.43.38,2.86.56,4.29-.22-1.1-.41-2.21-.64-3.31.37,2,.66,4,1,6,5.09,43.22,1.47,85.37-16.68,116.45-.29.45-.58.88-.87,1.32,9.41-47.23,12.56-99.39,2.09-151.6,0,0-4.19-25.38-35.38-102.44C835,280.36,803.18,244,775,217.5c-24.69-30.55-47.11-51-59.47-64.06-25.82-27.19-36.64-47.57-41.09-60.87-3.85-1.93-53.14-49.81-57.05-51.63-21.51,33.35-89.16,137.67-57,235.15,14.58,44.17,51.47,90,90.07,115.74,1.69,1.94,23,25,33.09,77.16,10.45,53.85,5,95.86-16.54,158C641.73,681.5,577,735.38,516.3,740.89c-129.67,11.78-177.15-65.11-177.15-65.11,46.34,18.52,97.57,14.65,128.72-4.56,31.4-19.43,50.39-33.83,65.81-28.15,15.2,5.65,27.3-10.76,16.44-27.77a78.52,78.52,0,0,0-79.4-34.57c-31.43,5.11-60.23,30-101.41,5.89a82.13,82.13,0,0,1-7.73-5.06c-2.71-1.79,8.83,2.72,6.13.69-8-4.35-22.2-13.84-25.88-17.22-.61-.56,6.22,2.18,5.61,1.62-38.51-31.71-33.7-53.13-32.49-66.57,1-10.75,8-24.52,19.75-30.11,5.69,3.11,9.24,5.48,9.24,5.48s-2.43-5-3.74-7.58c.46-.2.9-.15,1.36-.34,4.66,2.25,15,8.1,20.41,11.67,7.07,5,9.33,9.44,9.33,9.44s1.86-1,.48-5.37c-.5-1.78-2.65-7.45-9.65-13.17h.44a81.61,81.61,0,0,1,11.87,8.24c2-7.18,5.53-14.68,4.75-28.09-.48-9.43-.26-11.87-1.92-15.51-1.49-3.13.83-4.35,3.42-1.1a32.65,32.65,0,0,0-2.21-7.4V426c3.23-11.24,68.25-40.46,73-43.88a67.2,67.2,0,0,0,19.13-20.8c3.62-5.76,6.34-13.85,7-26.11.36-8.84-3.76-14.73-69.51-21.62-18-1.77-28.53-14.8-34.53-26.82-1.09-2.59-2.21-4.94-3.33-7.28a57.31,57.31,0,0,1-2.56-8.43c10.75-30.87,28.81-57,55.37-76.7,1.45-1.32-5.78.34-4.34-1,1.69-1.54,12.71-6,14.79-7,2.54-1.2-10.88-6.9-22.73-5.51-12.07,1.36-14.63,2.8-21.07,5.53,2.67-2.66,11.17-6.15,9.18-6.13-13,2-29.18,9.56-43,18.12a10.66,10.66,0,0,1,.83-4.35c-6.44,2.73-22.26,13.79-26.87,23.14a44.19,44.19,0,0,0,.27-5.4,84.57,84.57,0,0,0-13.19,13.82l-.24.22c-37.36-15-70.23-16-98.05-9.28-6.09-6.11-9.06-1.64-22.91-32.07-.94-1.83.72,1.81,0,0-2.28-5.9,1.39,7.87,0,0-23.28,18.37-53.92,39.19-68.63,53.89-.18.59,17.16-4.9,0,0-6,1.72-5.6,5.28-6.51,37.5-.22,2.44,0,5.18-.22,7.38-11.75,15-19.75,27.64-22.78,34.21-15.19,26.18-31.93,67-48.15,131.55A334.2,334.2,0,0,1,75.2,398.62c-13.49,34.27-26.53,88.08-29.14,171a482.08,482.08,0,0,1,12.53-50.66A473,473,0,0,0,93.33,720c9.33,22.82,24.76,57.46,51,95.4,82.53,86.84,198.95,140.9,327.85,140.9C606.79,956.27,727.64,897.39,810.67,803.89Z" style="fill:url(#linear-gradient-2)" />
          <path d="M810.67,803.89a245.54,245.54,0,0,1-30.12,18.18,702.48,702.48,0,0,0,38.3-63C828.31,748.6,837,738.42,844,727.42c3.44-5.41,7.31-12.08,11.42-19.82,24.92-44.9,52.4-117.56,53.18-192.2v-5.69A257.57,257.57,0,0,0,902.93,454c.2,1.43.38,2.86.56,4.29-.22-1.1-.41-2.21-.64-3.31.37,2,.66,4,1,6,5.09,43.22,1.47,85.37-16.68,116.45-.29.45-.58.88-.87,1.32,9.41-47.23,12.56-99.39,2.09-151.6,0,0-4.19-25.38-35.38-102.44C835,280.36,803.18,244,775,217.5c-24.69-30.55-47.11-51-59.47-64.06-25.82-27.19-36.64-47.57-41.09-60.87-3.85-1.93-53.14-49.81-57.05-51.63-21.51,33.35-89.16,137.67-57,235.15,14.58,44.17,51.47,90,90.07,115.74,1.69,1.94,23,25,33.09,77.16,10.45,53.85,5,95.86-16.54,158C641.73,681.5,577,735.38,516.3,740.89c-129.67,11.78-177.15-65.11-177.15-65.11,46.34,18.52,97.57,14.65,128.72-4.56,31.4-19.43,50.39-33.83,65.81-28.15,15.2,5.65,27.3-10.76,16.44-27.77a78.52,78.52,0,0,0-79.4-34.57c-31.43,5.11-60.23,30-101.41,5.89a82.13,82.13,0,0,1-7.73-5.06c-2.71-1.79,8.83,2.72,6.13.69-8-4.35-22.2-13.84-25.88-17.22-.61-.56,6.22,2.18,5.61,1.62-38.51-31.71-33.7-53.13-32.49-66.57,1-10.75,8-24.52,19.75-30.11,5.69,3.11,9.24,5.48,9.24,5.48s-2.43-5-3.74-7.58c.46-.2.9-.15,1.36-.34,4.66,2.25,15,8.1,20.41,11.67,7.07,5,9.33,9.44,9.33,9.44s1.86-1,.48-5.37c-.5-1.78-2.65-7.45-9.65-13.17h.44a81.61,81.61,0,0,1,11.87,8.24c2-7.18,5.53-14.68,4.75-28.09-.48-9.43-.26-11.87-1.92-15.51-1.49-3.13.83-4.35,3.42-1.1a32.65,32.65,0,0,0-2.21-7.4V426c3.23-11.24,68.25-40.46,73-43.88a67.2,67.2,0,0,0,19.13-20.8c3.62-5.76,6.34-13.85,7-26.11.36-8.84-3.76-14.73-69.51-21.62-18-1.77-28.53-14.8-34.53-26.82-1.09-2.59-2.21-4.94-3.33-7.28a57.31,57.31,0,0,1-2.56-8.43c10.75-30.87,28.81-57,55.37-76.7,1.45-1.32-5.78.34-4.34-1,1.69-1.54,12.71-6,14.79-7,2.54-1.2-10.88-6.9-22.73-5.51-12.07,1.36-14.63,2.8-21.07,5.53,2.67-2.66,11.17-6.15,9.18-6.13-13,2-29.18,9.56-43,18.12a10.66,10.66,0,0,1,.83-4.35c-6.44,2.73-22.26,13.79-26.87,23.14a44.19,44.19,0,0,0,.27-5.4,84.57,84.57,0,0,0-13.19,13.82l-.24.22c-37.36-15-70.23-16-98.05-9.28-6.09-6.11-9.06-1.64-22.91-32.07-.94-1.83.72,1.81,0,0-2.28-5.9,1.39,7.87,0,0-23.28,18.37-53.92,39.19-68.63,53.89-.18.59,17.16-4.9,0,0-6,1.72-5.6,5.28-6.51,37.5-.22,2.44,0,5.18-.22,7.38-11.75,15-19.75,27.64-22.78,34.21-15.19,26.18-31.93,67-48.15,131.55A334.2,334.2,0,0,1,75.2,398.62c-13.49,34.27-26.53,88.08-29.14,171a482.08,482.08,0,0,1,12.53-50.66A473,473,0,0,0,93.33,720c9.33,22.82,24.76,57.46,51,95.4,82.53,86.84,198.95,140.9,327.85,140.9C606.79,956.27,727.64,897.39,810.67,803.89Z" style="fill:url(#linear-gradient-3)" />
          <path d="M711.1,867C874,848.14,946.1,680.3,853.48,677,769.85,674.3,634,875.87,711.1,867Z" style="fill:url(#linear-gradient-4)" />
          <path d="M865.21,642.68C977.26,577.47,948,436.6,948,436.6s-43.25,50.24-72.62,130.32C846.4,646.22,797.84,682.07,865.21,642.68Z" style="fill:url(#linear-gradient-5)" />
          <path d="M509.47,950.32C665.7,1000.17,800,877.1,717.21,836,642,798.93,435.32,926.75,509.47,950.32Z" style="fill:url(#linear-gradient-6)" />
          <path d="M638.58,21.68l.53-.57A1.8,1.8,0,0,0,638.58,21.68ZM876.85,702.49c3.8-5.36,8.94-22.53,13.48-30.21,27.58-44.52,27.78-80,27.78-80.84,16.66-83.22,15.15-117.2,4.9-180-8.25-50.6-44.32-123.09-75.57-158-32.2-36-9.51-24.25-40.69-50.52-27.33-30.29-53.82-60.29-68.25-72.36C634.22,43.35,636.57,24.84,638.58,21.68c-.34.37-.84.92-1.47,1.64-1.23-4.92-2.11-9.06-2.11-9.06s-57,57-69,152c-7.83,62,15.38,126.68,49,168a381.17,381.17,0,0,0,59,58h0c25.4,36.48,39.38,81.49,39.38,129.91,0,121.24-98.34,219.53-219.65,219.53a220.14,220.14,0,0,1-49.13-5.52c-57.24-10.91-90.29-39.78-106.77-59.38-9.45-11.23-13.46-19.42-13.46-19.42,51.28,18.37,108,14.53,142.47-4.52,34.75-19.26,55.77-33.55,72.84-27.92,16.82,5.61,30.21-10.67,18.2-27.54-11.77-16.85-42.4-41-87.88-34.29-34.79,5.07-66.66,29.76-112.24,5.84a92.59,92.59,0,0,1-8.55-5c-3-1.77,9.77,2.69,6.79.68-8.87-4.32-24.57-13.73-28.64-17.07-.68-.56,6.88,2.16,6.2,1.6-42.62-31.45-37.3-52.69-36-66,1.07-10.66,8.81-24.32,21.86-29.86,6.3,3.08,10.23,5.43,10.23,5.43s-2.69-4.92-4.14-7.51c.51-.19,1-.15,1.5-.34,5.16,2.23,16.58,8,22.59,11.57,7.83,4.95,10.32,9.36,10.32,9.36s2.06-1,.54-5.33c-.56-1.77-2.93-7.39-10.68-13.07h.48a91.65,91.65,0,0,1,13.13,8.17c2.19-7.12,6.12-14.56,5.25-27.86-.53-9.35-.28-11.78-2.12-15.39-1.65-3.1.92-4.31,3.78-1.09a29.87,29.87,0,0,0-2.44-7.34v-.24c3.57-11.14,75.53-40.12,80.77-43.51a70.12,70.12,0,0,0,21.17-20.63c4-5.72,7-13.73,7.75-25.89.25-5.48-1.44-9.82-20.5-14-11.44-2.49-29.14-4.91-56.43-7.47-19.9-1.76-31.58-14.68-38.21-26.6-1.21-2.57-2.45-4.9-3.68-7.22A53.41,53.41,0,0,1,355.9,256a158.47,158.47,0,0,1,61.28-76.06c1.6-1.31-6.4.33-4.8-1,1.87-1.52,14.06-5.93,16.37-6.92,2.81-1.19-12-6.84-25.16-5.47-13.36,1.35-16.19,2.78-23.32,5.49,3-2.64,12.37-6.1,10.16-6.08-14.4,2-32.3,9.48-47.6,18a9.75,9.75,0,0,1,.92-4.31c-7.13,2.71-24.64,13.67-29.73,23a39.79,39.79,0,0,0,.29-5.35,89,89,0,0,0-14.6,13.7l-.27.22c-41.3-14.95-77.69-15.91-108.44-9.2-6.74-6.06-17.57-15.23-32.89-45.4-1-1.82-1.6,3.75-2.4,2-6-13.81-9.55-36.44-9-52,0,0-12.32,5.61-22.51,29.06-1.89,4.21-3.11,6.54-4.32,8.87-.56.68,1.27-7.7,1-7.24-1.77,3-6.36,7.19-8.37,12.62-1.38,4-3.32,6.27-4.56,11.29l-.29.46c-.1-1.48.37-6.08,0-5.14a237,237,0,0,0-12.31,29.84c-5.49,18-11.88,42.61-12.89,74.57-.24,2.42,0,5.14-.25,7.32C69.2,283,60.34,295.54,57,302.06,40.18,328,21.66,368.49,3.71,432.52a319.8,319.8,0,0,1,28.54-50C17.32,416.51,2.89,469.88,0,552.05a437.48,437.48,0,0,1,13.87-50.24c-2.58,54.8,3.81,122.74,38.45,199.39,20.57,45.09,67.92,136.65,183.62,208.1h0s39.36,29.3,107,51.26c5,1.81,10.06,3.6,15.23,5.33q-2.43-1-4.71-2a484.42,484.42,0,0,0,138.8,20.4c175.18.15,226.85-70.2,226.85-70.2l-.51.38q3.71-3.48,7.14-7.26c-27.63,26.12-90.74,27.84-114.29,26,40.22-11.81,66.69-21.81,118.17-41.52q9-3.36,18.48-7.64l2-.94c1.25-.58,2.49-1.13,3.75-1.74a348.86,348.86,0,0,0,70.26-44c51.7-41.3,63-81.56,68.83-108.1-.82,2.54-3.37,8.47-5.17,12.32-13.31,28.48-42.84,46-74.91,61A689.46,689.46,0,0,0,855.3,740C865.77,729.65,869,713.41,876.85,702.49Z" style="fill:url(#radial-gradient)" />
          <path d="M813.92,801.24c21.08-23.24,40-49.82,54.35-80,36.9-77.58,94-206.58,49-341.31C881.77,273.48,833,215.25,771.11,158.38,670.56,66,642.48,24.78,642.48.26c0,0-116.09,129.41-65.74,264.38s153.46,130,221.68,270.87c80.27,165.74-64.95,346.61-185,397.24,7.35-1.63,267-60.38,280.61-208.88C893.68,726.6,887.83,767.67,813.92,801.24Z" style="fill:url(#linear-gradient-7)" />
          <path d="M477.59,319.63c.39-8.77-4.16-14.66-76.68-21.46-29.84-2.76-41.26-30.33-44.75-41.94-10.61,27.56-15,56.49-12.64,91.48,1.61,22.92,17,47.52,24.37,62,0,0,1.64-2.13,2.39-2.91,13.86-14.43,71.94-36.42,77.39-39.54C453.69,363.42,476.58,346.69,477.59,319.63Z" style="fill:url(#linear-gradient-8)" />
          <path d="M477.59,319.63c.39-8.77-4.16-14.66-76.68-21.46-29.84-2.76-41.26-30.33-44.75-41.94-10.61,27.56-15,56.49-12.64,91.48,1.61,22.92,17,47.52,24.37,62,0,0,1.64-2.13,2.39-2.91,13.86-14.43,71.94-36.42,77.39-39.54C453.69,363.42,476.58,346.69,477.59,319.63Z" style="fill:url(#linear-gradient-9)" />
          <path d="M158.31,156.73c-1-1.82-1.6,3.75-2.4,2-6-13.81-9.58-36.2-8.72-52,0,0-12.32,5.61-22.51,29.06-1.89,4.21-3.11,6.54-4.32,8.86-.56.68,1.27-7.7,1-7.24-1.77,3-6.36,7.19-8.35,12.38-1.65,4.24-3.35,6.52-4.61,11.77-.39,1.43.39-6.32,0-5.38C84.72,201.94,80.19,271.23,82.69,268.3,133.17,214.4,191,201.62,191,201.62c-6.15-4.53-19.53-17.63-32.7-44.89Z" style="fill:url(#linear-gradient-10)" />
          <path d="M349.84,720.36c-69.72-29.77-149-71.75-146-167.14C207.92,427.6,321,452.43,321,452.43c-4.27,1-15.68,9.16-19.72,17.82-4.27,10.83-12.07,35.28,11.55,60.9,37.09,40.19-76.2,95.36,98.66,199.57,4.41,2.4-41-1.43-61.64-10.36Z" style="fill:url(#linear-gradient-11)" />
          <path d="M325.07,657.76c49.44,17.21,107,14.19,141.52-4.86,23.09-12.85,52.7-33.43,70.92-28.35-15.78-6.24-27.73-9.15-42.1-9.86-2.45,0-5.38-.05-8-.32a138.21,138.21,0,0,0-15.76.86c-8.9.82-18.77,6.43-27.74,5.53-.48,0,8.7-3.77,8-3.61-4.75,1-9.92,1.21-15.37,1.88-3.47.39-6.45.82-9.89,1-103,8.73-190-55.81-190-55.81-7.41,25,33.17,74.3,88.52,93.57Z" style="fill:url(#linear-gradient-12)" />
          <path d="M813.74,801.9C917.9,699.63,970.6,575.32,948.32,435.9c0,0,8.9,71.5-24.85,144.63,16.21-71.39,18.1-160.11-25-252C841,205.89,746.45,141.37,710.35,114.45,655.66,73.66,633,32.13,632.57,23.55c-16.34,33.48-65.77,148.2-5.31,247,56.64,92.56,145.86,120,208.33,205C950.67,631.92,813.74,801.9,813.74,801.9Z" style="fill:url(#linear-gradient-13)" />
          <path d="M798.81,535.81c-36.4-75.2-81.84-108-124.81-143.55,5,7,6.23,9.47,9,14,37.83,40.32,93.61,138.66,53.11,262.11C659.88,900.74,355,791.31,323,760.58c12.93,134.49,238,198.84,384.6,111.63C791,793.26,858.47,659,798.81,535.81Z" style="fill:url(#linear-gradient-14)" />
          <path d="M814.12,686.64l.94-4.85c.32-1.75.75-3.6,1-5.61.61-4,1.38-8.47,1.87-13.43a237.9,237.9,0,0,0,1.48-35A223.29,223.29,0,0,0,813.6,584a232.05,232.05,0,0,0-17.42-48.75,336.56,336.56,0,0,0-29.59-49.81c-5.8-8.24-12.31-16.18-19.09-24.06S733.27,446,725.58,438.59,709.75,424,701.44,417s-16.85-14-25.36-21-17-14.14-25.3-21.61-16.23-15.28-23.73-23.51a243.77,243.77,0,0,1-20.75-26l-2.3-3.42c-.79-1.13-1.57-2.27-2.28-3.45l-4.37-7c-1.44-2.34-2.72-4.77-4.08-7.14l-2-3.57c-.66-1.2-1.24-2.43-1.86-3.64l-3.67-7.29c-1.14-2.46-2.22-4.94-3.34-7.4-2.31-4.88-4.12-9.94-6.13-14.88l-.74-1.86-.64-1.9-1.27-3.79c-.83-2.52-1.71-5-2.49-7.54l-2-7.63-1-3.8c-.36-1.26-.53-2.55-.8-3.82a212.28,212.28,0,0,1-3.8-59.83,261.53,261.53,0,0,1,10.19-53.46,310.75,310.75,0,0,1,17-44.06,373.62,373.62,0,0,1,18.17-33.81,366.73,366.73,0,0,1,24.69-36c2.56-3.27,5.11-6.43,7.66-9.35a1,1,0,0,1,1.31,0,1,1,0,0,1,.17,1.29c-2.42,2.81-5,6-7.55,9.3a376,376,0,0,0-43,70.76,309.24,309.24,0,0,0-16.54,43.94,256.66,256.66,0,0,0-9.66,53,213.15,213.15,0,0,0,4.27,58.87c.13.63.24,1.26.38,1.88l.49,1.86,1,3.73c.68,2.48,1.28,5,2,7.48l2.49,7.4,1.25,3.72c.41,1.24,1,2.45,1.42,3.67l2.94,7.35.74,1.84.82,1.81,1.64,3.63,1.64,3.64c.55,1.21,1.08,2.44,1.7,3.62l3.63,7.16a247.86,247.86,0,0,0,37.41,53.14c7.43,8.06,15.32,15.72,23.5,23.07s16.66,14.36,25.13,21.33,17,13.82,25.32,20.84,16.44,14.16,24.23,21.51,15.15,15,22.09,22.84a287.17,287.17,0,0,1,19.3,24.16,341.24,341.24,0,0,1,30,50.05l.79,1.55.72,1.58,1.44,3.14c.94,2.09,1.93,4.15,2.81,6.23l2.51,6.25L808.8,555c.39,1,.73,2.08,1.1,3.12l2.15,6.17c.37,1,.68,2,1,3.07l.91,3.07c.59,2,1.23,4,1.77,6.06l1.48,6A227.32,227.32,0,0,1,823.32,627,241.84,241.84,0,0,1,822,662.8c-1.06,10.17-2.69,18.44-3.92,24.66a282.32,282.32,0,0,1-9.88,35.23,298.31,298.31,0,0,1-12.74,30.91c-4.59,9.51-9.21,18.33-14,26.26l-1.73,3L778,785.72l-3.45,5.54c-2.34,3.55-4.57,7-6.77,10.15-4.42,6.36-8.57,12-12.3,16.73l-5.27,6.59-4.57,5.37-2,2.26-1.76,1.93q-1.64,1.8-2.79,3c-1.52,1.59-2.37,2.37-2.47,2.28s.57-1.07,1.94-2.88,3.49-4.39,6.08-7.84C749.93,822,757.43,812,766,799c2.08-3.28,4.3-6.7,6.51-10.34s4.5-7.43,6.7-11.46q6.82-12,13.38-26.17c1.06-2.37,2.2-4.74,3.23-7.2l3.12-7.46c2-5.08,4-10.27,5.8-15.67A292.34,292.34,0,0,0,814.12,686.64Z" style="fill:url(#linear-gradient-15)" />
          <path d="M739.36,650c.52-2.06,1.32-4.8,2-8.22s1.74-7.41,2.49-12c.4-2.29.87-4.71,1.29-7.26l1.11-8,.29-2.11.22-2.16.44-4.45c.14-1.51.32-3,.43-4.59l.28-4.75a262.14,262.14,0,0,0-.93-41.93l-.27-2.79-.37-2.79-.75-5.61c-.23-1.88-.61-3.74-.92-5.63s-.61-3.77-1-5.65l-1.17-5.64c-.2-.94-.38-1.89-.6-2.82l-.68-2.81-1.37-5.61-1.55-5.56a272.56,272.56,0,0,0-15.87-42.08,267.22,267.22,0,0,0-19.66-34.4c-3.27-4.92-6.59-9.3-9.61-13.26s-6-7.34-8.54-10.2l-1.86-2.06-.45-.5a1.5,1.5,0,0,1-.3-.4l-.18-.29-.64-1.08L679,401.57c-1.32-2.18-2.34-3.71-2.92-4.59-.8-1.19-1.6-2.35-2.36-3.45a1,1,0,0,1,.3-1.27.94.94,0,0,1,1.3.14c.77,1.07,1.59,2.24,2.43,3.46.65,1,1.75,2.59,3.14,4.85l2.31,3.82.64,1a.24.24,0,0,0,.09.11l.22.24.46.5,1.92,2.1a222.87,222.87,0,0,1,18.55,23.67,269.68,269.68,0,0,1,20,34.53A274,274,0,0,1,741.32,509l1.6,5.59,1.42,5.64.71,2.82.62,2.84,1.22,5.67c.39,1.89.69,3.79,1,5.68s.72,3.77,1,5.66l.8,5.65.39,2.81.29,2.81a264.72,264.72,0,0,1,1.26,42.32,258,258,0,0,1-3.87,33.84C747,635,746,639,745.29,642.53s-1.51,6.33-2.06,8.47l-1.66,6.3-1.86,6-1.8,5.72c-.63,1.85-1.27,3.64-1.9,5.38-2.54,6.94-5.14,13-7.49,17.84-4.71,9.79-8.32,15.14-8.77,14.89s2.33-6.26,6.35-16.34c2-5,4.28-11.11,6.57-18,.57-1.72,1.15-3.49,1.71-5.31l1.66-5.6,1.74-5.82Z" style="fill:url(#linear-gradient-16)" />
          <path d="M716.89,368.69c-2.35-1.89-5.54-4.37-9.35-7.54L701.31,356c-2.24-1.86-4.58-3.92-7.09-6.07a404.29,404.29,0,0,1-34.4-33.24,292.74,292.74,0,0,1-35.56-48c-1.31-2.31-2.66-4.62-4-7l-3.62-7.22-.91-1.81c-.29-.61-.55-1.24-.82-1.86l-1.63-3.74-1.63-3.75c-.51-1.26-1-2.55-1.45-3.83l-1.44-3.84c-.49-1.28-1-2.56-1.36-3.88L605,224l-2.1-8c-.37-1.32-.66-2.66-.94-4l-.85-4a223.53,223.53,0,0,1-4.1-32.31,249.74,249.74,0,0,1,.42-31.43A279.77,279.77,0,0,1,601.11,115c1.69-9.27,3.71-18,5.86-26.11A361.71,361.71,0,0,1,620.25,49c4.07-10.17,7.26-17,8.51-19.69.86-1.85,1.72-3.65,2.56-5.35a1,1,0,0,1,1.25-.35,1,1,0,0,1,.51,1.2c-.79,1.65-1.65,3.47-2.51,5.34C629.22,33,626,40,622,50.24a363.43,363.43,0,0,0-13,39.91A298,298,0,0,0,600,145a250.51,250.51,0,0,0-.18,31,222.27,222.27,0,0,0,4.27,31.68l.86,3.94.43,2,.52,1.95,2.11,7.79,2.48,7.67c.38,1.29.88,2.53,1.36,3.79l1.43,3.75c.49,1.25.93,2.51,1.45,3.74l1.62,3.66,1.61,3.65c.27.6.52,1.22.82,1.81l.9,1.77,3.58,7,3.91,6.79a290.31,290.31,0,0,0,35.21,47,402,402,0,0,0,34.17,32.77c2.51,2.13,4.85,4.18,7.09,6l6.26,5.13c3.82,3.17,7.07,5.68,9.47,7.62l26.81,21.21c8.08,6.44,15.15,12.25,20.91,17.2l7.67,6.72c2.2,2,4,3.78,5.55,5.22,3,2.89,4.51,4.56,4.33,4.76s-2.1-1.14-5.47-3.73L765,405.83l-21.46-16.5C735.35,383.09,726.32,376.21,716.89,368.69Z" style="fill:url(#linear-gradient-17)" />
          <path d="M925.73,401.72c-.5-1.87-1-4.07-1.73-6.54s-1.49-5.25-2.42-8.28l-1.51-4.73c-.52-1.65-1.07-3.36-1.71-5.1l-4-11.24-2.17-6.14-2.5-6.4-2.62-6.71c-.92-2.28-1.75-4.64-2.8-7L898,325c-2.29-5-4.76-10.1-7.25-15.38l-.94-2-1-2-2.06-4-4.19-8.06c-.69-1.37-1.45-2.71-2.22-4.05l-2.34-4-4.68-8.24-5.08-8.21-2.57-4.15c-.43-.69-.85-1.4-1.3-2.08l-1.38-2c-3.7-5.45-7.31-11.08-11.36-16.47-2-2.72-4-5.49-6-8.21l-6.3-8.15c-1.06-1.35-2.1-2.72-3.19-4.05l-3.32-4-6.69-8-7-7.79c-1.17-1.29-2.3-2.62-3.5-3.88l-3.59-3.8c-2.4-2.53-4.77-5.09-7.2-7.59l-7.37-7.42c-2.43-2.49-4.95-4.89-7.45-7.3s-5-4.83-7.5-7.19l-15.09-14c-10-9.2-19.77-18.32-29.12-27.29-18.7-17.93-35.79-35.19-50-51s-25.56-30.19-32.86-42a104.24,104.24,0,0,1-8-15.28,54.94,54.94,0,0,1-3-9.2,36.36,36.36,0,0,1-1-7.28,1,1,0,0,0-1-.84.91.91,0,0,0-1,.85V1a37.31,37.31,0,0,0,1,7.67,57.38,57.38,0,0,0,3.22,9.94,107.1,107.1,0,0,0,8.33,15.83,230.52,230.52,0,0,0,14,19.82c5.57,7.13,12,14.72,19.12,22.68,14.24,15.91,31.27,33.23,49.86,51.19,9.29,9,19,18.12,28.92,27.33l14.93,14,7.39,7.17c2.47,2.39,4.94,4.79,7.34,7.27l7.26,7.38,7.09,7.55,3.54,3.78c1.16,1.27,2.29,2.58,3.44,3.86l6.83,7.73,6.57,7.89,3.27,3.93c1.07,1.33,2.09,2.68,3.14,4l6.21,8c2,2.7,3.94,5.44,5.9,8.14,4,5.34,7.52,10.92,11.16,16.31,1.85,2.67,3.46,5.48,5.15,8.2l5,8.13,4.6,8.16c1.49,2.71,3.07,5.33,4.45,8l4.11,8,2,3.92c.68,1.3,1.34,2.59,1.93,3.9a545.2,545.2,0,0,1,23.28,55.87L914.51,378l.9,2.58.79,2.5,1.5,4.72c.93,3,1.68,5.8,2.41,8.28s1.23,4.7,1.74,6.6l.73,2.83.65,2.83,1.29,5.58c.73,3.71,1.57,7.32,2.16,10.9l1,5.29.8,5.19c.57,3.41.93,6.76,1.38,10,1.6,13,2.24,24.61,2.54,34.24.52,19.29-.2,30.75.45,30.8h0c.25,0,.71-2.93,1.26-8.34s1-13.29,1.09-23.12A307.49,307.49,0,0,0,925.73,401.72Z" style="fill:url(#linear-gradient-18)" />
          <path d="M577.29,723c1.42-.52,3-1.31,4.85-2.12l6.14-2.78,7.21-3.68,2-1,2-1.14,4.19-2.4c2.91-1.58,5.82-3.54,8.93-5.5s6.22-4.24,9.51-6.53c1.66-1.13,3.26-2.4,4.9-3.69l5-3.91,5-4.28c1.68-1.45,3.42-2.9,5-4.51l5-4.78c1.69-1.63,3.29-3.39,5-5.11l2.51-2.62c.84-.88,1.61-1.83,2.43-2.74l4.88-5.61a242.24,242.24,0,0,0,18-25.16,239.39,239.39,0,0,0,14.82-28.69,234.94,234.94,0,0,0,10.5-31.1,232.14,232.14,0,0,0,5.68-32.06c.41-5.35.94-10.64,1-15.9.23-5.25.11-10.45,0-15.57a236.67,236.67,0,0,0-2.93-29.45c-.69-4.68-1.68-9.19-2.58-13.59l-1.55-6.44c-.48-2.12-1.14-4.16-1.69-6.19l-.85-3c-.29-1-.62-2-.93-2.93l-1.83-5.67-2-5.37-1-2.59-1-2.49-2-4.8c-.67-1.54-1.37-3-2-4.46s-1.27-2.85-1.93-4.17l-1.93-3.83a211.15,211.15,0,0,0-10.73-18.7l-3.29-5a1,1,0,0,1,.15-1.11l.43-.16h-.49l.45-.16a.93.93,0,0,1,1.06.28l3.36,5a212.54,212.54,0,0,1,11.2,19.34,218.69,218.69,0,0,1,15.71,39.84c1.24,4.07,2.22,8.36,3.31,12.75l1.4,6.74c.25,1.14.46,2.29.65,3.45l.59,3.51a248.2,248.2,0,0,1,3.05,29.66l.18,7.79v3.94l-.09,4c0,5.3-.55,10.65-.91,16a219.8,219.8,0,0,1-49,118.39l-4.91,5.71c-.82.93-1.6,1.89-2.44,2.79l-2.53,2.66c-1.69,1.75-3.31,3.53-5,5.21l-5,4.93c-.85.79-1.65,1.62-2.51,2.37l-2.57,2.24-5,4.37-5.07,4c-1.67,1.3-3.27,2.63-5,3.78l-4.88,3.48c-.8.56-1.58,1.14-2.37,1.68L615,707.49c-3.17,2-6.11,4-9.08,5.66l-4.27,2.46-2,1.17c-.67.37-1.36.71-2,1.05l-7.39,3.79c-2.3,1.09-4.43,2-6.32,2.89s-3.55,1.67-5,2.21a205.44,205.44,0,0,1-33.27,10.63c-2.58.56-5.07,1.13-7.5,1.63L531,740.15l-3.35.54-3.24.36-6.06.64c-1.92.24-3.76.29-5.49.38l-4.87.22c-3,.18-5.62,0-7.73,0-4.22-.13-6.5-.34-6.5-.62s2.36-.57,6.64-.92c2.14-.18,4.76-.3,7.8-.7l4.87-.53,2.66-.28c.91-.1,1.84-.27,2.8-.41,3.81-.62,8-1.07,12.49-2l6.94-1.36,7.31-1.78A231.31,231.31,0,0,0,577.29,723Z" style="fill:url(#linear-gradient-19)" />
          <path d="M351.94,263c1-2.74,2.18-6,3.6-9.69s3.21-7.86,5.47-12.36a162.23,162.23,0,0,1,19.1-30.7A152.53,152.53,0,0,1,415,177.78c1.84-1.25,3.77-2.43,5.74-3.6l1.49-.86.54-.31.19-.1.32-.17h.09c.12,0,0,0-.06-.07h-.1l-.42-.09q-3.41-.72-6.93-1.23a126.12,126.12,0,0,0-29.7-.78,112.84,112.84,0,0,0-26.45,5.73,102,102,0,0,0-13.72,6c-4.56,2.42-9.26,5.06-14,7.77s-9.53,5.59-14.28,8.68c-1.2.76-2.38,1.55-3.56,2.35s-2.36,1.61-3.52,2.45a76.69,76.69,0,0,0-6.73,5.32c-.5.48-1,1-1.48,1.46l-.35.37-.39.47c-.09.15-.25.22-.3.42h-.17l-.09,0-.19.1-.69.37a3,3,0,0,1-.64.26c-.27.07-.56.33-.86.12l-1.51-.56-2.09-.74c-2.8-1-5.65-1.88-8.52-2.77Q278,205.69,269,203.64l-.79-.18-.85-.2a190.45,190.45,0,0,0-29.58-4.16,132,132,0,0,0-30.22,2.23c-5,.87-10,2-15,3.22s-9.91,2.68-14.8,4.23A239.93,239.93,0,0,0,149.18,220,209.57,209.57,0,0,0,99,252.6a177.19,177.19,0,0,0-19.89,20.65c-1.53,1.77-2.89,3.67-4.3,5.51s-2.71,3.75-4,5.63L66.89,290c-1.28,1.87-2.6,3.69-3.75,5.61l-7,11.19L49.8,317.89c-1.07,1.8-2,3.64-3,5.46L44,328.78c-.92,1.79-1.88,3.53-2.74,5.3l-2.54,5.26c-3.43,6.89-6.32,13.63-9.14,20-2.65,6.39-5.18,12.39-7.29,18.05s-4,10.9-5.76,15.66-3.11,9.09-4.27,12.91l-1.66,5.29-1.32,4.46c-.81,2.68-1.38,4.79-1.79,6.25-1,3.42-1.84,6.8-2.62,10a1,1,0,0,1-1.15.61A.92.92,0,0,1,3,431.48v0c.76-3.15,1.62-6.58,2.6-10.08.43-1.6,1-3.84,1.88-6.64l1.36-4.63,1.69-5.44c.59-2,1.27-4,2-6.22s1.48-4.52,2.33-6.95c1.73-4.84,3.57-10.18,5.8-15.87S25.3,363.85,28,357.41l4.35-9.84c.73-1.69,1.52-3.38,2.35-5.08l2.48-5.17L39.67,332l2.77-5.32,2.82-5.43c.48-.91.94-1.84,1.45-2.75l1.55-2.73c2.09-3.65,4.15-7.4,6.37-11.14l7-11.26c.58-1,1.22-1.89,1.86-2.82l1.92-2.81,3.89-5.67,2-2.86,2.11-2.8,2.13-2.81c.72-.93,1.49-1.83,2.24-2.75A181,181,0,0,1,97.91,250a204.59,204.59,0,0,1,23.81-18,230.67,230.67,0,0,1,26.75-14.8,240,240,0,0,1,58.82-18.93c5.09-.9,10.2-1.62,15.34-2.05,1.28-.11,2.57-.21,3.86-.27s2.58-.12,3.87-.14c2.58,0,5.14.08,7.7.13a194.48,194.48,0,0,1,30,4.12l.86.2.81.18q9.07,2,17.83,4.67c2.91.89,5.79,1.8,8.64,2.78l2.13.75.62.22c.11,0,.13.06.18,0l.1-.14.28-.34.41-.44c.54-.61,1.11-1.11,1.67-1.66a78.53,78.53,0,0,1,7-5.58c1.19-.86,2.38-1.71,3.59-2.51s2.4-1.63,3.61-2.4c4.81-3.15,9.64-6,14.39-8.81s9.43-5.39,14.09-7.89a104.82,104.82,0,0,1,14.19-6.25,116.45,116.45,0,0,1,27.36-6,129.84,129.84,0,0,1,30.39.7q3.62.51,7.13,1.23c.35.07,1.77.37,2.79.62s2.17.53,3.13.83l2.93.87,1.45.44.3.1.16,0H434l-.85.38-3.37,1.53-.84.38c-.28.13-.57.26-.77.37l-1.33.7-1.33.69-.66.35-.32.17-.18.1-1.43.83c-1,.54-1.88,1.13-2.81,1.7s-1.84,1.16-2.73,1.76a148.58,148.58,0,0,0-33.92,31.52,159.38,159.38,0,0,0-18.71,30c-2.22,4.44-3.86,8.6-5.41,12.24s-2.62,6.94-3.6,9.7a232.16,232.16,0,0,0-8.08,30A198.75,198.75,0,0,0,344,322.27a127.54,127.54,0,0,0,.92,25.09l.47,2.85c.15.94.3,1.87.54,2.79.44,1.83.8,3.64,1.32,5.37s.92,3.45,1.46,5.1,1,3.27,1.55,4.83A274.52,274.52,0,0,0,362,397.06c3.09,6.56,4.88,10.07,4.63,10.22s-2.53-3.27-6.14-9.81a212.22,212.22,0,0,1-13.21-29c-1.15-3.19-2.27-6.57-3.3-10.15-.52-1.79-1-3.65-1.44-5.52s-.73-3.87-1.11-5.87a131.29,131.29,0,0,1-1.09-25.76,189.56,189.56,0,0,1,3.59-28.37A227.44,227.44,0,0,1,351.94,263Z" style="fill:url(#linear-gradient-20)" />
          <g style="opacity:0.25">
            <path d="M915.07,657.63l2.85-6.3,4-9.2,4.75-11.72,2.52-6.71c.86-2.32,1.8-4.7,2.62-7.19,1.7-5,3.56-10.18,5.18-15.68.82-2.75,1.77-5.52,2.53-8.38l2.36-8.69c.85-2.92,1.46-5.92,2.17-8.93l1-4.53c.36-1.51.71-3,1-4.57l1.74-9.24.43-2.32.34-2.33.69-4.66c1-6.19,1.55-12.42,2.24-18.53.44-6.13,1-12.15,1.12-18,.46-11.7.34-22.7-.22-32.32a283.63,283.63,0,0,0-4.08-36.28c-.21-1.15-.43-2.28-.65-3.34a1,1,0,0,1,.77-1,.92.92,0,0,1,1.14.63h0c.23,1,.48,2.2.7,3.38a287,287,0,0,1,4.51,36.94c.13,2.42.32,4.92.4,7.5l.24,8c0,5.44.12,11.14-.13,17-.09,5.88-.58,11.93-1,18.08-.64,6.13-1.12,12.39-2.08,18.62l-.64,4.68-.32,2.34-.42,2.33-1.66,9.3c-.25,1.55-.6,3.08-.94,4.6l-1,4.56c-.69,3-1.28,6.05-2.1,9l-2.29,8.75c-.36,1.45-.79,2.86-1.21,4.26l-1.25,4.18-1.23,4.1-.61,2-.66,2-2.57,7.7a445.76,445.76,0,0,1-16.62,41.7c-11.91,26.19-23.65,43.64-24.6,43S903.6,682.92,915.07,657.63Z" style="fill:#fff" />
          </g>
          <g style="opacity:0.25">
            <path d="M779.41,865.32c5-3,16.85-10,31.16-20.3l5.49-4,5.63-4.28,2.9-2.2,2.88-2.32,5.87-4.75,5.84-5c2-1.69,4-3.39,5.82-5.18s3.73-3.64,5.59-5.48,3.59-3.81,5.27-5.82a140,140,0,0,0,9.53-12.29,147.13,147.13,0,0,0,8-12.74,169.73,169.73,0,0,0,11.32-24.49A158.72,158.72,0,0,0,892.63,727c.15-1,.3-1.91.41-2.81a1,1,0,0,1,1.07-.74.92.92,0,0,1,.87,1v0c-.1.9-.23,1.88-.38,2.88a161.08,161.08,0,0,1-7.79,30.28,171.81,171.81,0,0,1-11.21,24.91,151.5,151.5,0,0,1-8,13,143.71,143.71,0,0,1-9.54,12.57c-1.68,2.06-3.51,4-5.29,6a78.84,78.84,0,0,1-5.63,5.64c-1.95,1.79-3.87,3.58-5.82,5.3l-5.81,5.12L829.67,835l-2.86,2.37-2.89,2.24L818.3,844c-1.85,1.4-3.7,2.72-5.48,4-14.29,10.46-26.22,17.71-31.39,20.8-20.72,12.39-37.24,18.66-37.67,17.61-.2-.47,3.73-2.72,10.19-6.37S769.43,871.27,779.41,865.32Z" style="fill:#fff" />
          </g>
          <g style="opacity:0.25">
            <path d="M518.09,981.82l6.73-.27,9.74-.6c7.4-.51,16.5-1.28,26.66-2.52,1.27-.15,2.56-.27,3.86-.46l3.94-.57,8.15-1.18c2.77-.39,5.56-1,8.4-1.46s5.73-1,8.63-1.6l8.75-1.93,4.43-1c1.47-.35,2.93-.77,4.41-1.16l8.85-2.37c.74-.2,1.48-.38,2.21-.61l2.18-.7,4.36-1.41c2.9-1,5.82-1.82,8.68-2.85l8.49-3.14,4.19-1.56,4.1-1.67,8-3.29a270.77,270.77,0,0,0,28.13-14,118.17,118.17,0,0,0,19.1-13.55,49.59,49.59,0,0,0,8-8.69c.3-.46.61-.92.89-1.37a10.55,10.55,0,0,0,.72-1.36,1.05,1.05,0,0,1,1.22-.39c.55.15.71.64.56,1.2a8.18,8.18,0,0,1-.78,1.53,11.59,11.59,0,0,1-1,1.51,52.49,52.49,0,0,1-8.44,9.36,124.32,124.32,0,0,1-19.42,14,279.54,279.54,0,0,1-28.23,14.4l-8,3.37-4.09,1.72-4.19,1.6-8.45,3.2c-2.86,1-5.79,2-8.7,2.94l-4.38,1.46-2.19.73-2.22.63-8.87,2.47c-1.48.4-2.94.84-4.42,1.2l-4.43,1-8.77,2c-2.9.63-5.8,1.13-8.65,1.68s-5.65,1.13-8.42,1.55L569.66,981c-2.67.42-5.28.83-7.83,1.11-10.2,1.33-19.35,2.18-26.82,2.76l-9.87.67-6.89.3c-28,1.17-48.35-1.16-48.24-2.29S491.06,983,518.09,981.82Z" style="fill:#fff" />
          </g>
          <path d="M155.86,160.77l-1.92-3.17c-.67-1.32-1.53-2.79-2.33-4.54A76.5,76.5,0,0,1,147,139.64,117.38,117.38,0,0,1,144,120q-.21-2.84-.31-5.89v-2.17h0l-.09.09-.09.1-.45.5c-1.5,1.68-3,3.43-4.56,5.24-4.08,4.77-8.43,10.15-12.83,16s-8.84,12.16-13,18.82c-2.14,3.3-4.08,6.77-6.06,10.21l-2.78,5.28c-.48.87-.9,1.77-1.31,2.67l-1.25,2.7a150.27,150.27,0,0,0-8,21.95c-2,7.28-3.66,14.35-4.93,20.92s-2.16,12.65-2.85,18c-1.33,10.61-1.78,18.1-1.91,20.49l-.16,3.35a1,1,0,0,1-1,.83.93.93,0,0,1-1-.85v0c0-1.06.07-2.21.12-3.39.12-2.63.5-10.29,1.76-21,.64-5.37,1.53-11.49,2.71-18.13s2.79-13.77,4.77-21.13a149.36,149.36,0,0,1,7.78-22.29l1.24-2.75.62-1.38.69-1.35,2.76-5.38c2-3.5,3.9-7,6-10.38,4.15-6.77,8.54-13.19,12.93-19.11s8.7-11.4,12.77-16.27c1.54-1.83,3.05-3.6,4.55-5.3l.68-.77,1.06-1.17,2.11-2.32,2.07-2.23,1-1.11.25-.26.12-.12v1c-.06,2.15-.18,4.38-.16,6.33V114q.1,2.94.33,5.7a113.79,113.79,0,0,0,3,18.89A72.43,72.43,0,0,0,155,151.33c.34.85.79,1.57,1.15,2.28l1.05,2,1.9,3.13c3.67,5.91,7.49,11.2,11,15.9s6.66,8.8,9.31,12.2c5.3,6.8,8.45,10.86,8,11.24s-4.4-3.19-10.36-9.65c-3-3.23-6.43-7.2-10.1-11.82A169.38,169.38,0,0,1,155.86,160.77Z" style="fill:url(#linear-gradient-21)" />
          <path d="M205.1,584.1c-.35-1.58-.67-3.73-1.13-6.35-.25-1.31-.43-2.74-.61-4.3l-.6-5a142.7,142.7,0,0,1,.09-25.65A151.74,151.74,0,0,1,209,511.5a99.91,99.91,0,0,1,6.59-16,81.94,81.94,0,0,1,22.32-26.87l3.43-2.59c1.14-.85,2.35-1.59,3.51-2.38l1.75-1.16c.59-.37,1.2-.71,1.79-1.07l3.56-2.09a81.56,81.56,0,0,1,28.77-8.82,122.24,122.24,0,0,1,22.47-.45c5.84.42,9.8,1.07,11.38,1.32,1.08.18,2.13.37,3.13.58a1,1,0,0,1-.39,1.92c-.94-.18-2-.35-3.06-.52-1.69-.25-5.7-.85-11.5-1.19a119.36,119.36,0,0,0-22.12.74A78.89,78.89,0,0,0,253,461.85c-2.26,1.39-4.63,2.69-6.85,4.28-1.11.78-2.29,1.49-3.37,2.35L239.51,471a78.82,78.82,0,0,0-21.08,26,97.19,97.19,0,0,0-6.17,15.5A148.72,148.72,0,0,0,206.55,543a139.8,139.8,0,0,0,.09,24.89l.61,4.86c.19,1.52.36,2.93.61,4.21.47,2.57.79,4.7,1.14,6.28,1.31,6.35,2.86,12.2,4.4,17.41s3.11,9.75,4.52,13.49c2.73,7.52,4.67,11.87,4.17,12.15s-3.37-3.86-6.85-11.32a132.29,132.29,0,0,1-5.42-13.49c-.86-2.62-1.78-5.38-2.53-8.31S205.8,587.26,205.1,584.1Z" style="fill:url(#linear-gradient-22)" />
        </g>
      </g>
    </g>
  </g>
</svg>
