<svg width="512" height="512" xmlns="http://www.w3.org/2000/svg">
  <defs>
    <linearGradient x1="42%" y1="-10%" x2="61%" y2="114%" id="f">
      <stop stop-color="#AAF2FF" offset="0%"/>
      <stop stop-color="#0DF" offset="29%"/>
      <stop stop-color="#0090ED" offset="61%"/>
      <stop stop-color="#0250BB" offset="89%"/>
    </linearGradient>
    <linearGradient x1="38%" y1="0%" x2="63%" y2="124%" id="g">
      <stop stop-color="#AAF2FF" offset="0%"/>
      <stop stop-color="#0DF" offset="29%"/>
      <stop stop-color="#0090ED" offset="74%"/>
      <stop stop-color="#0250BB" offset="100%"/>
    </linearGradient>
    <linearGradient x1="86%" y1="15%" x2="20%" y2="84%" id="k">
      <stop stop-color="#80EBFF" stop-opacity=".5" offset="24%"/>
      <stop stop-color="#0DF" stop-opacity="0" offset="70%"/>
    </linearGradient>
    <linearGradient x1="61%" y1="-10%" x2="20%" y2="149%" id="l">
      <stop stop-color="#BFF3FF" stop-opacity=".9" offset="0%"/>
      <stop stop-color="#80EBFF" stop-opacity=".5" offset="100%"/>
    </linearGradient>
    <linearGradient x1="51%" y1="-2%" x2="48%" y2="139%" id="m">
      <stop stop-color="#BFF3FF" offset="0%"/>
      <stop stop-color="#0DF" stop-opacity="0" offset="100%"/>
    </linearGradient>
    <linearGradient x1="52%" y1="-4%" x2="47%" y2="143%" id="n">
      <stop stop-color="#BFF3FF" offset="0%"/>
      <stop stop-color="#AAF2FF" stop-opacity=".5" offset="100%"/>
    </linearGradient>
    <linearGradient x1="53%" y1="-2%" x2="47%" y2="142%" id="o">
      <stop stop-color="#BFF3FF" offset="0%"/>
      <stop stop-color="#0DF" stop-opacity="0" offset="100%"/>
    </linearGradient>
    <linearGradient x1="49%" y1="-2%" x2="57%" y2="123%" id="p">
      <stop stop-color="#BFF3FF" stop-opacity=".8" offset="0%"/>
      <stop stop-color="#80EBFF" stop-opacity=".2" offset="100%"/>
    </linearGradient>
    <linearGradient x1="117%" y1="-23%" x2="24%" y2="128%" id="q">
      <stop stop-color="#BFF3FF" stop-opacity=".8" offset="0%"/>
      <stop stop-color="#80EBFF" stop-opacity=".2" offset="100%"/>
    </linearGradient>
    <linearGradient x1="52%" y1="-1%" x2="47%" y2="137%" id="r">
      <stop stop-color="#0DF" stop-opacity=".4" offset="0%"/>
      <stop stop-color="#0DF" stop-opacity="0" offset="100%"/>
    </linearGradient>
    <linearGradient x1="50%" y1="-12%" x2="50%" y2="99%" id="s">
      <stop stop-color="#BFF3FF" offset="0%"/>
      <stop stop-color="#0DF" stop-opacity="0" offset="100%"/>
    </linearGradient>
    <linearGradient x1="53%" y1="-3%" x2="47%" y2="142%" id="t">
      <stop stop-color="#BFF3FF" stop-opacity=".8" offset="0%"/>
      <stop stop-color="#0DF" stop-opacity="0" offset="100%"/>
    </linearGradient>
    <radialGradient cx="55%" cy="25%" r="60%" id="a">
      <stop stop-color="#0DF" stop-opacity=".4" offset="10%"/>
      <stop stop-color="#7542E5" stop-opacity=".25" offset="90%"/>
    </radialGradient>
    <radialGradient cx="49.238%" cy="52.7%" fx="49%" fy="52.7%" r="51%" id="b">
      <stop stop-color="#7542E5" stop-opacity="0" offset="91%"/>
      <stop stop-color="#0DF" stop-opacity=".4" offset="100%"/>
    </radialGradient>
    <radialGradient cx="86%" cy="-13%" fx="86%" fy="-13%" r="128%" gradientTransform="matrix(.81263 0 0 1 .16 0)" id="c">
      <stop stop-color="#80EBFF" offset="0%"/>
      <stop stop-color="#0DF" offset="26%"/>
      <stop stop-color="#0090ED" offset="53%"/>
      <stop stop-color="#0060DF" offset="86%"/>
    </radialGradient>
    <radialGradient cx="47.729%" cy="40%" fx="48%" fy="40%" r="128%" gradientTransform="matrix(.81263 0 0 1 .09 0)" id="d">
      <stop stop-color="#321C64" stop-opacity=".8" offset="30%"/>
      <stop stop-color="#212F83" stop-opacity=".5" offset="37%"/>
      <stop stop-color="#0A47AC" stop-opacity=".14" offset="48%"/>
      <stop stop-color="#0250BB" stop-opacity="0" offset="53%"/>
    </radialGradient>
    <radialGradient cx="90%" cy="-50%" r="210%" gradientTransform="matrix(.83857 0 0 1 .128 0)" id="e">
      <stop stop-color="#80EBFF" offset="0%"/>
      <stop stop-color="#00B3F4" offset="47%"/>
      <stop stop-color="#0060DF" offset="84%"/>
      <stop stop-color="#592ACB" offset="100%"/>
    </radialGradient>
    <radialGradient cx="208%" cy="-104%" fx="208%" fy="-104%" r="300%" gradientTransform="matrix(1 0 0 .99746 0 -.003)" id="h">
      <stop stop-color="#0DF" offset="0%"/>
      <stop stop-color="#0090ED" offset="82%"/>
    </radialGradient>
    <radialGradient cx="155%" cy="-45%" fx="155%" fy="-45%" r="313%" gradientTransform="matrix(.8937 0 0 1 .165 0)" id="i">
      <stop stop-color="#80EBFF" offset="29%"/>
      <stop stop-color="#00B3F4" offset="100%"/>
    </radialGradient>
    <radialGradient cx="15%" cy="-43%" fx="15%" fy="-43%" r="230%" gradientTransform="matrix(.9814 0 0 1 .003 0)" id="j">
      <stop stop-color="#AAF2FF" offset="18%"/>
      <stop stop-color="#0DF" offset="43%"/>
      <stop stop-color="#0060DF" offset="69%"/>
    </radialGradient>
  </defs>
  <path d="M478.979 166.383c-10.457-25.127-31.636-52.255-48.267-60.828 13.536 26.508 21.369 53.1 24.363 72.944 0-0.058 0.011 0.049 0.036 0.226 0.012 0.086 0.027 0.174 0.04 0.26 22.7 61.476 10.334 123.992-7.487 162.193-27.572 59.1-94.325 119.685-198.808 116.73-112.89-3.193-212.335-86.866-230.9-196.457-3.382-17.282 0-26.057 1.7-40.089-2.074 10.817-2.863 13.942-3.9 33.161 0 0.411-0.025 0.816-0.025 1.227 0 132.725 107.721 240.319 240.6 240.319 117.111 0.044 217.24-84.25 237.16-199.654 0.408-3.076 0.734-6.169 1.094-9.271 4.783-41.215-0.531-84.536-15.606-120.761z" fill="url(#c)"/>
  <path d="M478.979 166.383c-10.457-25.127-31.636-52.255-48.267-60.828 13.536 26.508 21.369 53.1 24.363 72.944 0-0.058 0.011 0.049 0.036 0.226 0.012 0.086 0.027 0.174 0.04 0.26 22.7 61.476 10.334 123.992-7.487 162.193-27.572 59.1-94.325 119.685-198.808 116.73-112.89-3.193-212.335-86.866-230.9-196.457-3.382-17.282 0-26.057 1.7-40.089-2.074 10.817-2.863 13.942-3.9 33.161 0 0.411-0.025 0.816-0.025 1.227 0 132.725 107.721 240.319 240.6 240.319 117.111 0.044 217.24-84.25 237.16-199.654 0.408-3.076 0.734-6.169 1.094-9.271 4.783-41.215-0.531-84.536-15.606-120.761z" fill="url(#d)"/>
  <path d="M17.957 261.451c18.564 109.591 118.009 193.264 230.9 196.457 104.483 2.955 171.236-57.626 198.808-116.73 17.821-38.2 30.188-100.717 7.487-162.193l-0.008-0.026-0.032-0.234c-0.025-0.177-0.041-0.284-0.036-0.226 0 0.04 0.015 0.136 0.047 0.4 8.533 55.667-19.813 109.6-64.126 146.06a25.453 25.453 0 0 1-0.133 0.313c-86.345 70.232-168.97 42.374-185.7 30.971a137.238 137.238 0 0 1-3.5-1.744c-50.34-24.032-71.137-69.846-66.678-109.137-42.506 0-57-35.813-57-35.813s38.163-27.183 88.461-3.541c46.583 21.9 90.332 3.543 90.337 3.541-0.09-1.952-41.965-18.592-58.291-34.66-8.723-8.585-12.865-12.725-16.533-15.83a71.492 71.492 0 0 0-6.232-4.7 276.433 276.433 0 0 0-4.987-3.3c-17.548-11.394-52.448-10.766-53.6-10.736h-0.112c-9.538-12.068-8.865-51.879-8.321-60.191-0.115-0.516-7.116 3.63-8.033 4.255a175.206 175.206 0 0 0-23.514 20.122 210.506 210.506 0 0 0-22.469 26.916c0 0.012-0.007 0.026-0.011 0.038 0-0.013 0.007-0.026 0.011-0.039A202.752 202.752 0 0 0 22.4 204.245c-0.113 0.522-8.658 37.847-4.443 57.206z" fill="url(#e)"/>
  <path d="M341.214 166.617a130.72 130.72 0 0 1 22.336 29.115c1.325 0.994 2.561 1.986 3.612 2.953C421.707 248.892 393.129 319.9 391 324.959c44.313-36.464 72.659-90.393 64.126-146.06-27.207-67.74-73.339-95.056-111.015-154.531-1.905-3.007-3.809-6.022-5.667-9.2a73.166 73.166 0 0 1-2.649-4.973 43.755 43.755 0 0 1-3.595-9.507 0.627 0.627 0 0 0-0.546-0.645 0.822 0.822 0 0 0-0.452 0c-0.034 0.012-0.084 0.051-0.12 0.065-0.053 0.021-0.12 0.069-0.176 0.1-9.306 4.428-64.484 91.705 10.308 166.409z" fill="url(#f)"/>
  <path d="M248.657 133.663l31.855 2.028 19.347 6.883 16.124 6.33 18.57 13.259 17.493 18.44 6.077 11.469c0.816 0.5 2.5 1.586 3.932 2.558 0.525 0.368 1 0.735 1.5 1.1a130.748 130.748 0 0 0-22.336-29.116C266.422 91.913 321.6 4.636 330.908 0.2c0.027-0.036 0.083-0.117 0.1-0.136-60.44 35.361-80.944 100.773-82.828 133.5l-0.009 0.183 0.486-0.084z" fill="url(#g)"/>
  <path d="M170.74 151.064a247.564 247.564 0 0 1 4.987 3.3 111.241 111.241 0 0 1-0.675-58.74c-24.716 11.243-43.941 29.014-57.916 44.707 1.156-0.031 36.056-0.661 53.604 10.733z" fill="url(#h)"/>
  <path d="M148.324 277.486s11.106-41.34 79.525-41.34c7.4 0 28.541-20.617 28.935-26.6 0 0-43.754 18.355-90.337-3.541-50.3-23.642-88.461 3.541-88.461 3.541s14.494 35.813 57 35.813c-4.459 39.291 16.338 85.1 66.678 109.137 1.125 0.538 2.183 1.124 3.338 1.639-29.385-15.166-53.647-43.835-56.678-78.649z" fill="url(#i)"/>
  <path d="M367.162 198.685c-1.051-0.967-2.287-1.959-3.612-2.953-0.49-0.367-0.97-0.734-1.5-1.1-12.847-9.015-35.851-17.919-58.014-14.069 86.541 43.219 63.308 192.05-56.611 186.431a106.977 106.977 0 0 1-31.307-6.032 133.003 133.003 0 0 1-7.067-2.886c-1.358-0.619-2.714-1.244-4.055-1.936 0.048 0.034 0.114 0.071 0.163 0.105 16.729 11.4 99.354 39.261 185.7-30.971 0 0 0.054-0.124 0.133-0.313 2.137-5.061 30.715-76.069-23.83-126.276z" fill="url(#j)"/>
  <path d="M478.959 166.373c-10.457-25.127-31.637-52.255-48.268-60.828 13.536 26.508 21.37 53.1 24.364 72.944 0 0.039 0.015 0.136 0.047 0.4-27.207-67.74-73.34-95.056-111.015-154.531-1.9-3.008-3.809-6.022-5.668-9.2a73.115 73.115 0 0 1-2.648-4.972 43.755 43.755 0 0 1-3.589-9.5 0.627 0.627 0 0 0-0.547-0.645 0.818 0.818 0 0 0-0.451 0c-0.034 0.012-0.084 0.051-0.12 0.065-0.053 0.021-0.12 0.069-0.176 0.1 0.026-0.036 0.083-0.117 0.1-0.136-60.44 35.361-80.933 100.966-82.817 133.693l0.488-0.088 31.855 2.028 17.928 6.378 17.543 6.835 18.57 13.259 17.472 18.43s6.014 11.289 6.1 11.479c-13.944-8.294-34.208-14.977-54.1-11.521 86.541 43.219 63.308 192.05-56.611 186.43a106.936 106.936 0 0 1-31.316-6.043 132.66 132.66 0 0 1-7.067-2.886c-1.358-0.619-2.714-1.244-4.055-1.936 0.048 0.033 0.114 0.071 0.163 0.105a137.238 137.238 0 0 1-3.5-1.744c1.125 0.538 2.183 1.124 3.338 1.639-29.379-15.169-53.644-43.838-56.679-78.652 0 0 11.106-41.34 79.524-41.34 7.4 0 28.542-20.617 28.935-26.6-0.09-1.952-41.966-18.592-58.291-34.66-8.723-8.586-12.865-12.725-16.533-15.83a71.492 71.492 0 0 0-6.232-4.7 111.241 111.241 0 0 1-0.675-58.74c-24.716 11.243-43.941 29.014-57.917 44.707H117c-9.538-12.069-8.865-51.879-8.322-60.191-0.114-0.516-7.115 3.63-8.033 4.255a175.272 175.272 0 0 0-23.513 20.122 210.59 210.59 0 0 0-22.47 26.916 0.259 0.259 0 0 1 0-0.001 202.769 202.769 0 0 0-32.284 72.814c-0.115 0.521-0.212 1.061-0.325 1.587-0.452 2.116-2.488 12.854-2.772 15.158-0.022 0.176 0.021-0.177 0 0a279.2 279.2 0 0 0-3.548 33.533c0 0.411-0.026 0.816-0.026 1.227 0 132.725 107.722 240.319 240.6 240.319 119 0 217.811-86.3 237.156-199.654 0.408-3.076 0.734-6.169 1.094-9.272 4.79-41.208-0.523-84.526-15.598-120.753zm-23.868 12.342c0.012 0.085 0.027 0.174 0.04 0.26l-0.009-0.027c-0.011-0.082-0.022-0.156-0.031-0.233z" fill="url(#k)"/>
  <path d="M256.78 209.552s-1.02 0.427-2.9 1.071c-4.7 7.944-21.409 23.107-27.8 23.079-68.418-0.3-79.7 40.592-79.7 40.592a87.364 87.364 0 0 0 13.4 39.269 88.052 88.052 0 0 1-11.456-36.074s11.106-41.34 79.525-41.34c7.4 0 28.541-20.617 28.935-26.6l-0.004 0.003z" fill="url(#l)"/>
  <path d="M455.152 178.983l-0.009-0.024c-0.012-0.082-0.021-0.157-0.033-0.233a2 2 0 0 0-0.033-0.227 5.804 5.804 0 0 0 0.045 0.4 238.635 238.635 0 0 0-5.168-11.9c-0.612-1.314-1.269-2.543-1.9-3.827-1.2-2.464-2.4-4.935-3.657-7.294-0.775-1.456-1.59-2.837-2.383-4.254-1.163-2.077-2.316-4.166-3.515-6.167-0.879-1.463-1.787-2.864-2.68-4.29-1.169-1.863-2.334-3.731-3.533-5.535-0.948-1.429-1.92-2.813-2.886-4.209-1.193-1.723-2.386-3.448-3.6-5.129-1.008-1.387-2.032-2.743-3.052-4.1a349.361 349.361 0 0 0-3.673-4.827 339.91 339.91 0 0 0-3.2-4.033 474.441 474.441 0 0 0-3.751-4.62 550.474 550.474 0 0 0-3.307-3.963c-0.6-0.715-1.2-1.448-1.8-2.159 0.26 0.309 0.511 0.63 0.769 0.941-20.846-24.594-43.47-47.26-63.674-79.161-1.908-3.006-3.812-6.022-5.668-9.2a72.301 72.301 0 0 1-2.649-4.972 49.1 49.1 0 0 1-3.31-8.435c-0.042-0.154-0.118-0.39-0.145-0.509a13.834 13.834 0 0 1-0.133-0.56 0.63 0.63 0 0 0-0.548-0.645 0.847 0.847 0 0 0-0.451 0c-0.034 0.012-0.085 0.052-0.122 0.067-0.037 0.015-0.118 0.067-0.175 0.094a7.406 7.406 0 0 0-1.46 1.072 14.766 14.766 0 0 0-0.348 0.312A25.185 25.185 0 0 0 327.2 3.6c-0.024 0.027-0.043 0.042-0.067 0.07 0.006-0.006 0.012-0.006 0.018-0.012-14.415 16.946-51.226 90.6 8.1 156.656-55.543-65.354-20.542-135.983-5.33-154.486a53.605 53.605 0 0 0 2.964 7.27 74.556 74.556 0 0 0 2.649 4.972c1.856 3.182 3.761 6.2 5.668 9.2 37.675 59.475 83.806 86.791 111.013 154.531a9.121 9.121 0 0 1-0.045-0.4 1.556 1.556 0 0 1 0.033 0.227c0.012 0.075 0.021 0.151 0.033 0.233l0.01 0.024c22.7 61.479 10.333 123.993-7.488 162.194a199.392 199.392 0 0 1-38.217 54.806 199.847 199.847 0 0 0 41.124-57.712c17.821-38.197 30.186-100.711 7.487-162.19z" fill="url(#m)"/>
  <path d="M330.908 0.2c0.027-0.036 0.083-0.117 0.1-0.136-54.445 31.853-76.48 88.088-81.693 122.854 5.988-32.122 26.574-81.185 72.71-112.16 3.797-5.997 7.143-9.725 8.883-10.558z" fill="url(#n)"/>
  <path d="M390.863 325.272s0.054-0.124 0.133-0.313c2.133-5.056 30.711-76.067-23.834-126.274-1.051-0.967-2.287-1.959-3.612-2.953-0.49-0.367-0.97-0.734-1.5-1.1-12.415-8.712-34.316-17.318-55.776-14.412l-0.052 0.006a66.895 66.895 0 0 0-2.186 0.337c85.565 42.732 63.813 188.7-52.595 186.555 0.316 0.015 0.633 0.04 0.948 0.053 118.011 4.617 141.264-140.111 59.276-185.485 17.768-0.174 34.954 6.315 45.567 13.16 0.539 0.347 1.034 0.694 1.537 1.043 1.363 0.941 2.637 1.883 3.725 2.808 56.468 48.034 30.691 120.109 28.758 125.245l-0.12 0.318" fill="url(#o)"/>
  <path d="M167.09 208.409c39.378 17.061 75.926 6.219 87 2.141-10.2 3.517-47.882 14.145-87.639-4.542-45.214-21.252-80.616-1.438-87.312 2.785l-0.018 0.011-0.321 0.2-0.026 0.018c-0.1 0.062-0.184 0.119-0.263 0.171l-0.016 0.01-0.2 0.133-0.026 0.017-0.125 0.084-0.034 0.024-0.087 0.06-0.032 0.023 0.112 0.261 0.017 0.04c0.037 0.085 0.085 0.19 0.14 0.312l0.027 0.059a50.858 50.858 0 0 0 0.208 0.446l0.019 0.038a48.42 48.42 0 0 0 1.58 3.021v0.007c5.337 9.445 21.431 31.629 54.893 31.629-4.325 38.113 15.116 82.361 62.232 106.915-45.032-25.952-63.953-73.046-58.693-110.5-34.765-0.923-50.313-21.761-54.758-30.6 12.732-6.91 44.822-19.443 83.322-2.763z" fill="url(#p)"/>
  <path d="M175.69 154.227a129.117 129.117 0 0 0-1.176-0.685 160.832 160.832 0 0 1 1.213 0.819c-0.013-0.045-0.027-0.089-0.037-0.134zm-0.247-0.882a111.383 111.383 0 0 1-0.391-57.724c-23.43 10.658-41.917 27.18-55.684 42.239 13.11-12.771 30.093-26.477 50.778-35.867-1.28 9.825-2.383 29.93 5.297 51.352z" fill="url(#q)"/>
  <path d="M23.758 286.64c-0.067-0.229-0.126-0.46-0.191-0.689a220.843 220.843 0 0 1-5.61-24.5c-1.836-8.432-1.25-20.27 0-30.992-0.929 5.566-1.511 11.223-2.2 24.064 0 0.411-0.025 0.816-0.025 1.227 0 105.031 67.465 194.31 161.467 227C95.716 451.54 35.35 376.849 23.758 286.64z" fill="url(#r)"/>
  <path d="M21.832 262.42c-4.214-19.36 4.331-56.685 4.446-57.206A202.752 202.752 0 0 1 58.562 132.4c0 0.013-0.007 0.026-0.011 0.038 0-0.012 0.007-0.025 0.011-0.037a210.59 210.59 0 0 1 22.47-26.916 175.272 175.272 0 0 1 23.513-20.122 27.696 27.696 0 0 1 1.015-0.634c-0.083 18.282 0.954 49.13 9.423 59.245h0.111c1.16-0.06 36.177-1.6 54.092 9.323a272.798 272.798 0 0 1 5.092 3.165 71.646 71.646 0 0 1 6.378 4.533c3.764 3.008 8.03 7.037 17.012 15.39 13 12.093 41.356 24.125 53.6 29.857-11.929-6.011-40.077-18.851-52.774-31.348-8.723-8.585-12.865-12.725-16.533-15.83a71.492 71.492 0 0 0-6.232-4.7 276.433 276.433 0 0 0-4.987-3.3c-17.548-11.394-52.448-10.766-53.6-10.736h-0.112c-8.718-11.03-8.905-45.221-8.458-57.37 0.018-0.469 0.036-0.9 0.054-1.3l0.021-0.43a103.932 103.932 0 0 1 0.018-0.355c0.015-0.263 0.029-0.516 0.044-0.735-0.007-0.031-0.042-0.042-0.095-0.042-0.018 0-0.048 0.009-0.071 0.012a1.022 1.022 0 0 0-0.151 0.034c-0.039 0.012-0.087 0.03-0.132 0.046a5.777 5.777 0 0 0-0.2 0.076c-0.059 0.024-0.124 0.053-0.19 0.082a8.749 8.749 0 0 0-0.234 0.106c-0.082 0.039-0.16 0.074-0.244 0.115l-0.251 0.124c-0.1 0.049-0.2 0.1-0.3 0.152l-0.245 0.127-0.359 0.189-0.2 0.109c-2.121 1.141-4.813 2.753-5.358 3.125a175.206 175.206 0 0 0-23.514 20.122 210.506 210.506 0 0 0-22.469 26.916c0 0.012-0.007 0.026-0.011 0.038 0-0.013 0.007-0.026 0.011-0.039A202.752 202.752 0 0 0 22.4 204.245c-0.116 0.522-8.661 37.847-4.446 57.206 15.8 93.263 90.176 167.742 181.563 189.838-89.605-23.24-162.11-96.928-177.685-188.869z" fill="url(#s)"/>
  <path d="M478.979 166.383c-9.226-22.17-26.8-45.889-42.231-57.055l-0.425-0.3a55.502 55.502 0 0 0-1.968-1.339 48.298 48.298 0 0 0-1.341-0.834c-0.172-0.1-0.345-0.212-0.517-0.312a42.518 42.518 0 0 0-1.786-0.986 270.666 270.666 0 0 1 1.9 3.816c0.385 0.792 0.77 1.583 1.148 2.374 11.668 24.418 18.557 48.455 21.317 66.754 0 0.04 0.015 0.136 0.047 0.4 8.533 55.667-19.813 109.6-64.126 146.06a25.453 25.453 0 0 1-0.133 0.313c-55.08 44.8-108.642 49.685-144.555 44.39 35.786 6.685 92.233 3.866 150.369-43.421l0.133-0.313c44.312-36.464 72.659-90.393 64.126-146.06a12.553 12.553 0 0 1-0.047-0.4c-2.451-16.244-8.159-37.01-17.57-58.548a159.025 159.025 0 0 1 26.316 37.491c17.047 34.765 24.739 77.051 22.235 117.833-0.188 3.07-0.343 6.128-0.58 9.175-13.069 112.508-106.968 202.869-225.784 209.53A245.579 245.579 0 0 1 218 493.02c130.16 20.911 252.944-66.713 275.488-196.6 0.408-3.076 0.734-6.169 1.094-9.271 4.786-41.22-0.528-84.541-15.603-120.766zm-23.828 12.6l-0.008-0.026-0.032-0.234c0.012 0.088 0.027 0.177 0.04 0.262v-0.002z" fill="url(#t)"/>
</svg>
